<?xml version="1.0" encoding="UTF-8" standalone="no"?>
<svg
   height="800px"
   version="1.1"
   width="800px"
   id="svg71"
   sodipodi:docname="fractal_2.svg"
   inkscape:version="1.3 (1:1.3+202307231459+0e150ed6c4)"
   xmlns:inkscape="http://www.inkscape.org/namespaces/inkscape"
   xmlns:sodipodi="http://sodipodi.sourceforge.net/DTD/sodipodi-0.dtd"
   xmlns="http://www.w3.org/2000/svg"
   xmlns:svg="http://www.w3.org/2000/svg">
  <sodipodi:namedview
     id="namedview71"
     pagecolor="#ffffff"
     bordercolor="#000000"
     borderopacity="0.25"
     inkscape:showpageshadow="2"
     inkscape:pageopacity="0.0"
     inkscape:pagecheckerboard="0"
     inkscape:deskcolor="#d1d1d1"
     inkscape:zoom="0.715625"
     inkscape:cx="210.30568"
     inkscape:cy="505.15284"
     inkscape:window-width="2490"
     inkscape:window-height="1369"
     inkscape:window-x="1990"
     inkscape:window-y="34"
     inkscape:window-maximized="1"
     inkscape:current-layer="svg71" />
  <defs
     id="defs1" />
  <polyline
     clip-path="url(#border_clip)"
     fill="none"
     points="-254.00849718747406,876.0282581475753 -203.45584540888012,889.5738003669014 -151.7642316338273,897.7609476841352 -99.50000000000074,900.4999999999986 -47.23576836617417,897.7609476841353 4.455845408878645,889.5738003669014 55.00849718747253,876.0282581475756 103.8683215378988,857.2727288212993 150.49999999999858,833.5127018922183 194.39262614623502,805.0084971874727 235.06530317942745,772.0724127386962 272.07241273869533,735.0653031794284 305.0084971874719,694.392626146236 333.5127018922174,650.4999999999995 357.27272882129853,603.8683215378999 376.02825814757483,555.0084971874737 389.57380036690085,504.4558454088798 397.7609476841347,452.7642316338271 400.49999999999807,400.5000000000005"
     stroke="#000000"
     stroke-linecap="round"
     stroke-width="1"
     id="polyline1"
     transform="matrix(0.83711024,0,0,0.80979438,116.82996,-19.013909)" />
  <polyline
     clip-path="url(#border_clip)"
     fill="none"
     points="-161.59369483348553,924.6608502550816 -112.35839983476467,931.5804197110205 -62.66952897191766,933.3155933167272 -13.071483912182543,929.8473601470695 35.89232878370797,921.2137188904284 83.68545133752127,907.5092615271172 129.7842522972038,888.8841369598506 173.6836635526471,865.5424059509455 214.90271396759405,837.7398053899065 252.9897990000577,805.7809463865485 287.52762857618745,770.0159768879339 318.1377990076417,730.8367453841901 344.4849388615835,688.6725077344536 366.2803833602796,643.9852241498488 383.2853370528122,597.2644978607441 395.31349010801074,549.0222109213032 402.23305956394955,499.78691592258247 403.9682331696563,450.09804505973545 400.4999999999985,400.5000000000004"
     stroke="#000000"
     stroke-linecap="round"
     stroke-width="1"
     id="polyline2"
     transform="matrix(0.83711024,0,0,0.80979438,116.82996,-19.013909)" />
  <polyline
     clip-path="url(#border_clip)"
     fill="none"
     points="-68.56354220907338,959.5081615826256 -21.363699537645346,960.3320379010571 25.663695982515833,956.2176739178933 72.00340236497607,947.2101474659197 117.14771208940215,933.4081468898902 160.60201465139912,914.9628897963701 201.89021561870032,892.0764662819942 240.55995282139648,864.999624792078 276.1875525265321,834.0290248681783 308.38267129618316,799.5039868840763 336.7925726718477,761.8027743807543 361.1059918288998,721.3384497318846 381.05654585914476,678.5543485460246 396.4256523177054,633.9192223889154 407.04492405802944,587.9221030432348 412.79801411670434,541.0669445740502 413.62189043513587,493.86710190262215 409.50752645197207,446.83970638246103 400.4999999999984,400.50000000000085"
     stroke="#000000"
     stroke-linecap="round"
     stroke-width="1"
     id="polyline3"
     transform="matrix(0.83711024,0,0,0.80979438,116.82996,-19.013909)" />
  <polyline
     clip-path="url(#border_clip)"
     fill="none"
     points="23.32736673117944,981.2949232803386 67.88152849641779,976.6120921801 111.70212876307733,967.2977360571025 154.30905986458646,953.4539049461839 195.2355113477235,935.2322747580033 234.03308444562865,912.8324854860238 270.2767048285271,886.4999539089663 303.5692798070387,856.5231847532255 333.5460489627796,823.2306097747141 359.8785805398373,786.9869893918158 382.2783698118171,748.1894162939108 400.49999999999784,707.2629648107738 414.34383111091665,664.6560337092648 423.65818723391436,620.8354334426053 428.3410183341531,576.2812716773669 428.3410183341532,531.4816931334076 423.6581872339147,486.92753136816935 414.3438311109172,443.1069311015098 400.4999999999986,400.5000000000007"
     stroke="#000000"
     stroke-linecap="round"
     stroke-width="1"
     id="polyline4"
     transform="matrix(0.83711024,0,0,0.80979438,116.82996,-19.013909)" />
  <polyline
     clip-path="url(#border_clip)"
     fill="none"
     points="111.8151380168593,992.3916815298168 153.32473352393671,982.8084363007441 193.60521322669368,968.9387548625311 232.2152557602745,950.9345963474323 268.7318414190104,928.9932180837513 302.7548868488375,903.3550144032739 333.9116284442466,874.3008828306622 361.8607064243511,842.1491465113938 386.29590484208035,807.2520665967659 406.9495065501757,769.9919827970066 423.5952263662793,730.7771243873999 436.0506903007451,690.0371375629181 444.17943368423363,648.2183781446007 447.8923963031865,605.7790212117726 447.1488981621631,563.1840412399964 441.95708518238354,520.9001177434154 432.37383995331083,479.390522236338 418.50415851509786,439.11004253358107 400.49999999999903,400.5000000000003"
     stroke="#000000"
     stroke-linecap="round"
     stroke-width="1"
     id="polyline5"
     transform="matrix(0.83711024,0,0,0.80979438,116.82996,-19.013909)" />
  <polyline
     clip-path="url(#border_clip)"
     fill="none"
     points="197.16278892742622,991.0341402332256 235.1295265013089,977.2153778641363 271.44382431953477,959.5037113873015 305.7078153359519,938.093193527046 337.5460960947835,913.2184023974856 366.60983972944706,885.1518714156207 392.58061778270195,854.2011033681875 415.1738889754619,820.7052013467785 434.14211670059325,785.0311534634083 449.27748108578254,747.5698120519614 460.41415591154697,708.7316114082316 467.4301254379965,668.9420709858874 470.2485212348133,628.6371333162926 468.83846436786024,588.258387730906 463.215403715245,548.2482322161563 453.4409467061787,509.04502640852695 439.6221843370894,471.0782888346443 421.91051786025463,434.76399101641846 400.4999999999992,400.50000000000136"
     stroke="#000000"
     stroke-linecap="round"
     stroke-width="1"
     id="polyline6"
     transform="matrix(0.83711024,0,0,0.80979438,116.82996,-19.013909)" />
  <polyline
     clip-path="url(#border_clip)"
     fill="none"
     points="277.0381970586143,981.3421154885239 311.265849049795,963.9022557225788 343.48303664113206,942.9801694692961 373.3367815834949,918.8050834838947 400.49999999999716,891.6418650673927 424.67508598539877,861.78812012503 445.59717223868176,829.5709325336932 463.0370320046271,795.3432805425126 476.80359053011375,759.4801694693004 486.74601851909904,722.3745230638133 492.7553846499487,684.4328785529252 494.76584904979256,646.0709325336973 492.75538464994906,607.7089865144692 486.7460185190997,569.7673420035811 476.8035905301148,532.6616955980938 463.03703200462843,496.79858452488156 445.59717223868336,462.5709325337009 424.6750859854007,430.3537449423639 400.4999999999993,400.50000000000114"
     stroke="#000000"
     stroke-linecap="round"
     stroke-width="1"
     id="polyline7"
     transform="matrix(0.83711024,0,0,0.80979438,116.82996,-19.013909)" />
  <polyline
     clip-path="url(#border_clip)"
     fill="none"
     points="351.28368702591956,963.0450314427712 381.56884196237485,942.6174365042399 409.5528265441214,919.1360853628258 434.92904238005633,892.8582446154231 457.41946233916667,864.071819784252 476.77767667395733,833.0922009637094 492.7915927372096,800.2588073404952 505.2857587134072,765.9313684459746 514.1232859055424,730.4859828841546 519.207348516327,694.3109977166741 520.4822444918884,657.8027536511304 517.9340058051296,621.3612426493468 511.5905514923556,585.3857255317353 501.5213817664705,550.2703575921973 487.8368165581003,516.3998701502417 470.6867868273472,484.14535535413756 450.25919188881585,453.86020041768234 426.7778407474019,425.8762158359358 400.4999999999992,400.50000000000085"
     stroke="#000000"
     stroke-linecap="round"
     stroke-width="1"
     id="polyline8"
     transform="matrix(0.83711024,0,0,0.80979438,116.82996,-19.013909)" />
  <polyline
     clip-path="url(#border_clip)"
     fill="none"
     points="419.19109728397194,935.7429959595299 445.33906957310654,913.0129104277993 468.96785962355966,887.6741353219511 489.81858546689637,860.0042875645247 507.66280218748204,830.3065237978382 522.3050048127836,798.9062189363761 533.5847703067604,766.1474012911369 541.3785151982178,732.388983323465 545.6008495871788,698.0008293250175 546.2055126944979,663.3597031071852 543.1858797046373,628.8451400979322 536.5750343485327,594.8352890722248 526.445406431314,561.7027690749193 512.9079782762032,529.8105869285318 496.11106877895656,499.5081600545263 476.23870839500523,471.12748818292494 453.5086228632746,444.9795158937903 428.1698477574264,421.35072584333716 400.49999999999994,400.50000000000045"
     stroke="#000000"
     stroke-linecap="round"
     stroke-width="1"
     id="polyline9"
     transform="matrix(0.83711024,0,0,0.80979438,116.82996,-19.013909)" />
  <polyline
     clip-path="url(#border_clip)"
     fill="none"
     points="480.2316286557991,903.9056911930843 502.293970440982,879.4029783000215 521.6742214848443,852.7283511490572 538.1600477013712,824.1740625372819 551.5708269286538,794.0529592260953 561.7596278630915,762.6950543266207 568.6148198695034,730.4439116070005 572.0612960297259,697.652881335856 572.0612960297261,664.6812289028024 568.614819869504,631.890198631658 561.7596278630925,599.6390559120376 551.5708269286552,568.281151012563 538.1600477013731,538.1600477013762 521.6742214848464,509.6057590896007 502.2939704409844,482.93113193863616 480.2316286558019,458.4284190455731 455.7289157627391,436.3660772603903 429.05428861177484,416.985826216528 400.49999999999955,400.500000000001"
     stroke="#000000"
     stroke-linecap="round"
     stroke-width="1"
     id="polyline10"
     transform="matrix(0.83711024,0,0,0.80979438,116.82996,-19.013909)" />
  <polyline
     clip-path="url(#border_clip)"
     fill="none"
     points="533.8511924740269,865.5508747373444 551.8023578963879,839.9139536207018 566.9753969890671,812.5410665049087 579.2040707606026,783.7321164693506 588.3543993021389,753.8027403992774 594.3261296993454,723.0808508020374 597.0538344243256,691.9030431290266 596.5076281733037,660.6109079654865 592.6934952962667,629.5472884925688 585.6532242311744,599.0525242256992 575.4639496610871,569.4607221836252 562.2373074104374,541.0960963420025 546.1182113395764,514.2694154772314 527.2832656381943,489.27459831871016 505.9388299128609,466.3854933137294 482.31875826799353,445.85287828657675 456.68183715135103,427.9017128642157 429.3089500355579,412.7286737715365 400.49999999999983,400.500000000001"
     stroke="#000000"
     stroke-linecap="round"
     stroke-width="1"
     id="polyline11"
     transform="matrix(0.83711024,0,0,0.80979438,116.82996,-19.013909)" />
  <polyline
     clip-path="url(#border_clip)"
     fill="none"
     points="590.2671705019447,804.9552702206768 602.4074844096135,777.2699404100069 611.5362508066105,748.4510172418636 617.550037121988,718.8250306311992 620.3807047538057,688.727654844256 619.9961811067176,658.4999051750015 616.4008229872932,628.484274105584 609.6353672396575,599.0208507296577 599.7764691807705,570.4434674070586 586.935834065055,543.0759173097747 571.2589514192296,517.2282857159264 552.9234465878359,493.1934366196614 532.1370681671096,471.2436944650789 509.13533413037294,451.62775860146223 484.1788633152887,434.5678854202765 457.5504225082916,420.25737010144405 429.5517225839099,408.85835650171884 400.4999999999998,400.5000000000006"
     stroke="#000000"
     stroke-linecap="round"
     stroke-width="1"
     id="polyline12"
     transform="matrix(0.83711024,0,0,0.80979438,116.82996,-19.013909)" />
  <polyline
     clip-path="url(#border_clip)"
     fill="none"
     points="637.5504807536555,719.3214831913231 641.4739286906172,689.8339637410735 642.1296943997729,660.0938020337526 639.5098177737373,630.4620033453966 633.6461005657716,601.298257571784 624.6097203595785,572.9565730803495 612.5103665698564,545.7809795281556 597.4949089613933,520.1013518078917 579.7456148490783,496.22940581353595 559.4779366196035,474.4549146316649 536.9378964313506,455.04219108871905 512.3990998386573,438.2268793513375 486.15941459102396,424.2130945253872 458.53735492213735,413.1709449750792 429.8682152185441,405.2344674378619 400.5,400.4999999999999"
     stroke="#000000"
     stroke-linecap="round"
     stroke-width="1"
     id="polyline13"
     transform="matrix(0.83711024,0,0,0.80979438,116.82996,-19.013909)" />
  <polyline
     clip-path="url(#border_clip)"
     fill="none"
     points="656.264375010536,607.6139071436346 648.8943950656205,578.7704439386114 638.2257265916066,550.9776123621136 624.4026450276765,524.6112627830589 607.6120838387086,500.027954848456 588.0811065608466,477.5601356258518 566.0738361566966,457.5116438270502 541.8878832053573,440.15360091076536 515.8503212298828,425.72074462999717 488.3132635889734,414.4082546066106 459.6491017478438,406.36911286177764 430.2454693224875,401.712034996579 400.4999999999999,400.49999999999943"
     stroke="#000000"
     stroke-linecap="round"
     stroke-width="1"
     id="polyline14"
     transform="matrix(0.83711024,0,0,0.80979438,116.82996,-19.013909)" />
  <polyline
     clip-path="url(#border_clip)"
     fill="none"
     points="647.3244234484962,524.1833701002794 631.6743963729873,499.3611212234392 613.1464841391689,476.6062567979173 592.0108654286353,456.25059398653 568.5757451554543,438.5909641900281 543.1828601445039,423.88488457686776 516.2024958390413,412.34680290301606 488.0280867051292,404.1449703807751 459.0704790711844,399.3989881972374 429.7519400633633,398.1780634596602 400.5000000000001,400.50000000000045"
     stroke="#000000"
     stroke-linecap="round"
     stroke-width="1"
     id="polyline15"
     transform="matrix(0.83711024,0,0,0.80979438,116.82996,-19.013909)" />
  <polyline
     clip-path="url(#border_clip)"
     fill="none"
     points="616.6455484153689,453.59043874811516 594.101150229834,435.33434505947827 569.4464261034277,420.0477684457615 543.0701957636416,407.9717873519213 515.3884281193303,399.29684721364913 486.83768118253136,394.1597570190835 457.8682172878274,392.64153174934165 428.93690218635686,394.7661147238712 400.4999999999998,400.49999999999955"
     stroke="#000000"
     stroke-linecap="round"
     stroke-width="1"
     id="polyline16"
     transform="matrix(0.83711024,0,0,0.80979438,116.82996,-19.013909)" />
  <polyline
     clip-path="url(#border_clip)"
     fill="none"
     points="568.874298819135,401.96938024515777 541.7058932887123,392.48174829879775 513.5315327627113,386.6214728815494 484.83328836114015,384.48882493057704 456.1021950023665,386.12029464360364 427.82984965952284,391.4879671215104 400.5000000000002,400.50000000000034"
     stroke="#000000"
     stroke-linecap="round"
     stroke-width="1"
     id="polyline17"
     transform="matrix(0.83711024,0,0,0.80979438,116.82996,-19.013909)" />
  <polyline
     clip-path="url(#border_clip)"
     fill="none"
     points="510.22860220097346,374.46452729391507 481.71451621865896,375.26532874695437 453.5750544223602,379.9413390322999 426.3344017434359,388.40545292568686 400.5000000000001,400.5"
     stroke="#000000"
     stroke-linecap="round"
     stroke-width="1"
     id="polyline18"
     transform="matrix(0.83711024,0,0,0.80979438,116.82996,-19.013909)" />
  <polyline
     clip-path="url(#border_clip)"
     fill="none"
     points="475.7149651719908,367.0121399409473 449.1614915754256,374.6262259706305 423.92611052230245,385.8617415001723 400.49999999999983,400.49999999999955"
     stroke="#000000"
     stroke-linecap="round"
     stroke-width="1"
     id="polyline19"
     transform="matrix(0.83711024,0,0,0.80979438,116.82996,-19.013909)" />
  <polyline
     clip-path="url(#border_clip)"
     fill="none"
     points="421.8857065941705,383.2968738022816 400.4999999999998,400.49999999999955"
     stroke="#000000"
     stroke-linecap="round"
     stroke-width="1"
     id="polyline20"
     transform="matrix(0.83711024,0,0,0.80979438,116.82996,-19.013909)" />
  <polyline
     clip-path="url(#border_clip)"
     fill="none"
     points="400.5,400.5 397.7609476841367,348.23576836617326 389.57380036690284,296.54415459112033 376.0282581475768,245.9915028125263 357.27272882130046,197.13167846209993 333.51270189221935,150.50000000000006 305.0084971874737,106.60737385376353 272.07241273869715,65.93469682057099 235.06530317942918,28.92758726130296 194.39262614623667,-4.008497187473608 150.5000000000001,-32.512701892219184 103.86832153790027,-56.27272882130029 55.00849718747389,-75.02825814757665 4.455845408879895,-88.57380036690267 -47.23576836617298,-96.76094768413651 -99.49999999999966,-99.49999999999983 -151.7642316338264,-96.76094768413651 -203.45584540887933,-88.57380036690267 -254.00849718747327,-75.02825814757665 -302.86832153789965,-56.27272882130035 -349.49999999999955,-32.51270189221924 -393.392626146236,-4.008497187473665 -434.0653031794285,28.927587261302847 -471.07241273869647,65.93469682057082 -504.00849718747304,106.6073738537633 -532.5127018922186,150.4999999999998 -556.2727288212997,197.13167846209961 -575.028258147576,245.99150281252594 -588.5738003669021,296.5441545911199 -596.760947684136,348.23576836617275 -599.4999999999993,400.4999999999994 -596.760947684136,452.764231633826 -588.5738003669022,504.4558454088789 -575.0282581475763,555.0084971874728 -556.2727288213,603.8683215378991 -532.512701892219,650.4999999999989 -504.0084971874734,694.3926261462354 -471.0724127386969,735.0653031794279 -434.06530317942907,772.0724127386958 -393.3926261462366,805.0084971874724 -349.5000000000001,833.5127018922179 -302.86832153790033,857.2727288212991 -254.00849718747406,876.0282581475753"
     stroke="#000000"
     stroke-linecap="round"
     stroke-width="1"
     id="polyline21"
     transform="matrix(0.83711024,0,0,0.80979438,116.82996,-19.013909)" />
  <polyline
     clip-path="url(#border_clip)"
     fill="none"
     points="400.5,400.5 391.86635874335883,351.5361873041094 378.16190138004765,303.74306475029596 359.53677681278106,257.6442637906133 336.19504580387576,213.74485253516997 308.3924452428367,172.52580212022292 276.4335862394787,134.4387170877592 240.66861674086388,99.90088751162938 201.48938523712002,69.29071708017506 159.3251475873834,42.94357722623323 114.63786400277854,21.14813272753713 67.9171377136737,4.143179035004437 19.674850774232766,-7.884974020194079 -29.56044422448815,-14.804543476132835 -79.24931508733522,-16.53971708183957 -128.8473601470704,-13.071483912181748 -177.811172842961,-4.437842655540635 -225.60429539677432,9.266614707770486 -271.70309635645697,27.891739275037082 -315.60250761190025,51.233470283942324 -356.82155802684724,79.0360708449814 -394.908643059311,110.99492984833932 -429.4464726354407,146.7598993469541 -460.05664306689505,185.93913085069795 -486.4037829208369,228.1033685004345 -508.1992274195329,272.7906520850393 -525.2041811120656,319.5113783741441 -537.2323341672642,367.75366531358503 -544.151903623203,416.98896031230595 -545.8870772289098,466.67783117515296 -542.418844059252,516.2758762348881 -533.7852028026109,565.2396889307786 -520.0807454392998,613.032811484592 -501.45562087203325,659.1316124442745 -478.11388986312807,703.0310236997178 -450.311289302089,744.2500741146648 -418.35243029873106,782.3371591471284 -382.58746080011633,816.8749887232582 -343.4082292963725,847.4851591547125 -301.243991646636,873.8322990086543 -256.55670806203125,895.6277435073505 -209.8359817729264,912.6326971998831 -161.59369483348553,924.6608502550816"
     stroke="#000000"
     stroke-linecap="round"
     stroke-width="1"
     id="polyline22"
     transform="matrix(0.83711024,0,0,0.80979438,116.82996,-19.013909)" />
  <polyline
     clip-path="url(#border_clip)"
     fill="none"
     points="400.5,400.5 386.69799942397043,355.3556902755738 368.25274233045025,311.9013877135768 345.3663188160743,270.6131867462755 318.289477326158,231.9434495435793 287.31887740225835,196.31584983844363 252.7938394181562,164.12073106879248 215.0926269148341,135.7108296931279 174.62830226596435,111.39741053607577 131.84420108010426,91.4468565058308 87.20907492299489,76.07775004727017 41.2119555773142,65.45847830694618 -5.643202891870544,59.70538824827122 -52.84304556329863,58.88151192983969 -99.87044108345987,62.995875913003545 -146.21014746592016,72.0034023649772 -191.35445719034635,85.80540294100678 -234.80875975234335,104.25066003452696 -276.0969607196446,127.13708354890292 -314.76669792234077,154.21392503881916 -350.3942976274765,185.1845249627188 -382.5894163971276,219.7095629468209 -410.9993177727921,257.410775450143 -435.3127369298443,297.8751000990127 -455.2632909600893,340.6592012848728 -470.63239741864993,385.2943274419821 -481.251669158974,431.2914467876627 -487.00475921764894,478.14660525684747 -487.82863553608047,525.3464479282754 -483.71427155291667,572.3738434484367 -474.70674510094307,618.7135498308969 -460.90474452491355,663.8578595553231 -442.4594874313934,707.3121621173201 -419.5730639170175,748.6003630846213 -392.4962224271013,787.2701002873175 -361.5256225032017,822.8976999924532 -327.0005845190997,855.0928187621043 -289.29937201577764,883.5027201377688 -248.83504736690793,907.8161392948209 -206.05094618104795,927.766693325066 -161.41582002393864,943.1357997836266 -115.418700678258,953.7550715239506 -68.56354220907338,959.5081615826256"
     stroke="#000000"
     stroke-linecap="round"
     stroke-width="1"
     id="polyline23"
     transform="matrix(0.83711024,0,0,0.80979438,116.82996,-19.013909)" />
  <polyline
     clip-path="url(#border_clip)"
     fill="none"
     points="400.5,400.5 382.27836981181935,359.57354851686284 359.8785805398397,320.7759754189576 333.5460489627821,284.53235503605913 303.56927980704126,251.23978005754748 270.2767048285298,221.26301090180652 234.03308444563135,194.93047932474877 195.23551134772623,172.53069005276896 154.3090598645892,154.30905986458816 111.70212876308005,140.46522875366935 67.88152849642046,131.15087263067164 23.32736673118211,126.46804153043291 -21.472211812777346,126.4680415304328 -66.02637357801575,131.1508726306713 -109.8469738446754,140.46522875366884 -152.4539049461846,154.30905986458748 -193.38035642932175,172.5306900527681 -232.17792952722698,194.93047932474775 -268.42154991012546,221.26301090180533 -301.7141248886371,251.2397800575461 -331.69089404437807,284.5323550360576 -358.02342562143576,320.77597541895597 -380.42321489341555,359.573548516861 -398.6448450815964,400.49999999999807 -412.4886761925152,443.1069311015072 -421.80303231551295,486.92753136816674 -426.4858634157516,531.4816931334051 -426.48586341575174,576.2812716773644 -421.8030323155132,620.8354334426028 -412.48867619251564,664.6560337092624 -398.64484508159705,707.2629648107716 -380.42321489341646,748.1894162939087 -358.0234256214369,786.986989391814 -331.6908940443793,823.2306097747123 -301.7141248886386,856.523184753224 -268.42154991012717,886.4999539089649 -232.1779295272288,912.8324854860226 -193.3803564293238,935.2322747580024 -152.45390494618687,953.4539049461832 -109.84697384467779,967.297736057102 -66.02637357801825,976.6120921800998 -21.47221181277996,981.2949232803385 23.32736673117944,981.2949232803386"
     stroke="#000000"
     stroke-linecap="round"
     stroke-width="1"
     id="polyline24"
     transform="matrix(0.83711024,0,0,0.80979438,116.82996,-19.013909)" />
  <polyline
     clip-path="url(#border_clip)"
     fill="none"
     points="400.5,400.5 378.5586217363191,363.983414341264 352.9204180558416,329.96036891143683 323.8662864832299,298.80362731602764 291.7145501639614,270.85454933592314 256.81747024933344,246.4193509181938 219.55738644957407,225.76574921009836 180.3425280399673,209.12002939399474 139.60254121548547,196.66456545952894 97.78378179716793,188.5358220760404 55.34442486433977,184.8228594570875 12.749444892563474,185.56635759811087 -29.534478604017636,190.75817057789047 -71.04407411109514,200.34141580696314 -111.32455381385216,214.21109724517615 -149.93459634743306,232.215255760275 -186.451182006169,254.1566340239559 -220.4742274359961,279.79483770443335 -251.63096903140524,308.84896927704506 -279.5800470115098,341.0007055963135 -304.01524542923914,375.89778551094145 -324.6688471373345,413.15786931070073 -341.3145669534381,452.37272772030747 -353.7700308879039,493.1127145447893 -361.8987742713924,534.9314739631068 -365.61173689034536,577.3708308959349 -364.868238749322,619.9658108677113 -359.67642576954245,662.2497343642923 -350.0931805404698,703.7593298713698 -336.2234991022568,744.0398095741267 -318.21934058715794,782.6498521077076 -296.277962323477,819.1664377664436 -270.6397586429996,853.1894831962707 -241.5856270703879,884.3462247916798 -209.4338907511194,912.2953027717842 -174.53681083649144,936.7305011895135 -137.27672703673215,957.3841028976088 -98.06186862712542,974.0298227137124 -57.321881802643645,986.4852866481782 -15.503122384326161,994.6140300316667 26.936234548501943,998.3269926506197 69.53121452027824,997.5834945095963 111.8151380168593,992.3916815298168"
     stroke="#000000"
     stroke-linecap="round"
     stroke-width="1"
     id="polyline25"
     transform="matrix(0.83711024,0,0,0.80979438,116.82996,-19.013909)" />
  <polyline
     clip-path="url(#border_clip)"
     fill="none"
     points="400.5,400.5 375.6252088704396,368.66171924116844 347.5586778885746,339.5979756065048 316.60790984114135,313.6271975532499 283.11200781973224,291.0339263604899 247.4379599363619,272.06569863535856 209.976618524915,256.93033425016927 171.13841788118506,245.79365942440486 131.34887745884078,238.77768989795536 91.04393978924594,235.9592941011386 50.66519420385907,237.3693509680917 10.65503868910946,242.992411620707 -28.54816711852004,252.76686862977334 -66.51490469240275,266.5856309988627 -102.82920251062865,284.2972974756975 -137.09319352704586,305.70781533595306 -168.93147428587747,330.58260646551344 -197.9952179205411,358.64913744737845 -223.965995973796,389.59990549481165 -246.55926716655608,423.09580751622076 -265.5274948916874,458.76985539959105 -280.6628592768767,496.2311968110379 -291.79953410264113,535.0693974547678 -298.8155036290907,574.8589378771121 -301.63389942590754,615.1638755467069 -300.2238425589544,655.5426211320937 -294.6007819063391,695.5527766468433 -284.8263248972728,734.7559824544728 -271.00756252818337,772.7227200283555 -253.29589605134856,809.0370178465813 -231.88537819109308,843.3010088629985 -207.01058706153276,875.1392896218301 -178.9440560796678,904.2030332564937 -147.99328803223466,930.1738113097485 -114.49738601082561,952.7670825025086 -78.82333812745532,971.73531022764 -41.36199671600849,986.8706746128292 -2.5237960722786283,998.0073494385937 37.26574435006563,1005.0233189650432 77.57068201966041,1007.8417147618601 117.94942760504722,1006.4316578949071 157.95958311979678,1000.8085972422919 197.16278892742622,991.0341402332256"
     stroke="#000000"
     stroke-linecap="round"
     stroke-width="1"
     id="polyline26"
     transform="matrix(0.83711024,0,0,0.80979438,116.82996,-19.013909)" />
  <polyline
     clip-path="url(#border_clip)"
     fill="none"
     points="400.5,400.5 373.3367815834979,373.33678158349767 343.4830366411352,349.161695598096 311.26584904979825,328.239609344813 277.03819705861764,310.7997495788677 241.17508598540542,297.03319105338096 204.06943957991814,287.09076306439573 166.12779506903004,281.0813969335461 127.76584904980194,279.07093253370226 89.40390303057387,281.0813969335458 51.46225851968575,287.0907630643952 14.356612114198413,297.03319105338016 -21.506498959013925,310.7997495788666 -55.734150950194646,328.2396093448117 -87.95133854153175,349.16169559809447 -117.80508348389458,373.3367815834959 -144.9683019003969,400.49999999999795 -169.14338788579857,430.35374494236066 -190.06547413908152,462.5709325336976 -207.50533390502687,496.79858452487815 -221.27189243051362,532.6616955980903 -231.2143204194989,569.7673420035776 -237.2236865503486,607.7089865144658 -239.23415095019243,646.0709325336938 -237.22368655034893,684.4328785529219 -231.2143204194996,722.37452306381 -221.27189243051464,759.4801694692974 -207.50533390502824,795.3432805425097 -190.06547413908322,829.5709325336904 -169.1433878858005,861.7881201250275 -144.96830190039907,891.6418650673902 -117.80508348389696,918.8050834838925 -87.95133854153431,942.9801694692942 -55.73415095019743,963.9022557225771 -21.50649895901688,981.3421154885225 14.356612114195286,995.1086740140092 51.46225851968251,1005.0511020029945 89.40390303057058,1011.0604681338442 127.76584904979859,1013.070932533688 166.12779506902663,1011.0604681338446 204.06943957991473,1005.0511020029952 241.17508598540203,995.1086740140103 277.0381970586143,981.3421154885239"
     stroke="#000000"
     stroke-linecap="round"
     stroke-width="1"
     id="polyline27"
     transform="matrix(0.83711024,0,0,0.80979438,116.82996,-19.013909)" />
  <polyline
     clip-path="url(#border_clip)"
     fill="none"
     points="400.5,400.5 371.71357516882875,378.00958004088966 340.7339563482861,358.651365706099 307.9005627250718,342.63744964284666 273.57312383055114,330.14328366664904 238.12773826873104,321.30575647451377 201.95275310125044,316.2216938637293 165.4445090357066,314.9467978881678 129.0029980339229,317.49503657492676 93.02748091631128,323.83849088770074 57.912112976773244,333.9076606135859 24.041625534817513,347.59222582195616 -8.212889261286648,364.74225555270925 -38.49804419774199,385.16985049124065 -66.48202877948859,408.6512016326547 -91.85824461542359,434.92904238005747 -114.34866457453393,463.71546721122866 -133.7068789093246,494.6950860317713 -149.72079497257687,527.5284796549855 -162.21496094877443,561.8559185495061 -171.05248814090976,597.3013041113262 -176.13655075169424,633.4762892788068 -177.41144672725568,669.9845333443507 -174.86320804049672,706.4260443461343 -168.5197537277228,742.4015614637459 -158.45058400183768,777.5169294032839 -144.76601879346742,811.3874168452396 -127.61598906271433,843.6419316413437 -107.18839412418299,873.927086577799 -83.707042982769,901.9110711595456 -57.42920223536629,927.2872869954805 -28.6427774041951,949.7777069545908 2.336841416347511,969.1359212893815 35.1702350395617,985.1498373526338 69.49767393408223,997.6440033288313 104.94305949590233,1006.4815305209667 141.11804466338288,1011.5655931317511 177.62628872892662,1012.8404891073126 214.06779973071028,1010.2922504205536 250.04331684832184,1003.9487961077797 285.1586847878598,993.8796263818946 319.02917222981546,980.1950611735243 351.28368702591956,963.0450314427712"
     stroke="#000000"
     stroke-linecap="round"
     stroke-width="1"
     id="polyline28"
     transform="matrix(0.83711024,0,0,0.80979438,116.82996,-19.013909)" />
  <polyline
     clip-path="url(#border_clip)"
     fill="none"
     points="400.5,400.5 370.80223623331347,382.6557832794143 339.4019313718514,368.01358065411273 306.6431137266121,356.7338151601359 272.88469575894027,348.94007026867865 238.4965417604927,344.7177358797176 203.8554155426603,344.1130727723986 169.34085253340734,347.13270576225926 135.33100150769985,353.7435511183639 102.19848151039434,363.8731790355826 70.3062993640068,377.4106071906935 40.0038724900013,394.20751668794014 11.623200618399892,414.07987707189153 -14.524771670734765,436.80996260362224 -38.153561721187884,462.1487377094704 -59.00428756452453,489.81858546689693 -76.84850428511021,519.5163492335835 -91.4907069104118,550.9166540950455 -102.77047240438861,583.6754717402847 -110.56421729584594,617.4338897079565 -114.78655168480691,651.8220437064041 -115.391214792126,686.4631699242365 -112.37158180226538,720.9777329334894 -105.76073644616082,754.9875839591969 -95.6311085289421,788.1201039565024 -82.0936803738312,820.0122861028899 -65.29677087658456,850.3147129768954 -45.42441049263323,878.6953848484968 -22.69432496090252,904.8433571376314 2.644450144945665,928.4721471880846 30.314297902372118,949.3228730314213 60.012061669058596,967.167089752007 91.41236653052061,981.8092923773086 124.17118417575983,993.0890578712854 157.92960214343168,1000.8828027627427 192.31775614187922,1005.1051371517037 226.9588823597116,1005.7098002590228 261.4734453689645,1002.6901672691622 295.48329639467204,996.0793219130576 328.61581639197755,985.9496939958389 360.50799853836503,972.412265840728 390.81042541237053,955.6153563434813 419.19109728397194,935.7429959595299"
     stroke="#000000"
     stroke-linecap="round"
     stroke-width="1"
     id="polyline29"
     transform="matrix(0.83711024,0,0,0.80979438,116.82996,-19.013909)" />
  <polyline
     clip-path="url(#border_clip)"
     fill="none"
     points="400.5,400.5 370.37889668881326,387.0892207727175 339.0209917893386,376.9004198382796 306.76984906971825,370.04522783186775 273.97881879857374,366.5987516716453 241.00716636552005,366.59875167164506 208.2161360943755,370.0452278318672 175.96499337475507,376.90041983827865 144.60708847528034,387.08922077271615 114.48598516409345,400.49999999999824 85.93169655231787,416.9858262165249 59.25706940135325,436.366077260387 34.75435650829013,458.42841904556957 12.692014723107263,482.9311319386324 -6.688236320755095,509.6057590895968 -23.17406253728211,538.1600477013722 -36.5848417645646,568.2811510125589 -46.77364269900244,599.6390559120334 -53.628834705414306,631.8901986316539 -57.075310865636766,664.6812289027982 -57.075310865636936,697.6528813358519 -53.628834705414874,730.4439116069964 -46.7736426990034,762.6950543266169 -36.58484176456591,794.0529592260916 -23.174062537283817,824.1740625372784 -6.688236320757142,852.728351149054 12.692014723104876,879.4029783000186 34.75435650828746,903.9056911930817 59.25706940135029,925.9680329782645 85.93169655231463,945.3482840221269 114.48598516408998,961.8341102386539 144.60708847527667,975.2448894659364 175.96499337475123,985.4336904003742 208.21613609437156,992.288882406786 241.00716636551599,995.7353585670085 273.9788187985696,995.7353585670087 306.76984906971404,992.2888824067866 339.02099178933446,985.4336904003751 370.3788966888091,975.2448894659376 400.49999999999596,961.8341102386555 429.0542886117715,945.3482840221288 455.72891576273605,925.9680329782668 480.2316286557991,903.9056911930843"
     stroke="#000000"
     stroke-linecap="round"
     stroke-width="1"
     id="polyline30"
     transform="matrix(0.83711024,0,0,0.80979438,116.82996,-19.013909)" />
  <polyline
     clip-path="url(#border_clip)"
     fill="none"
     points="400.5,400.5 370.5706239299267,391.3496714584638 339.8487343326866,385.37794106125716 308.67092665967584,382.650236336277 277.3787914961356,383.1964425872989 246.31517202321783,387.01057546433583 215.82040775634817,394.0508465294283 186.2286057142741,404.2401210995157 157.86397987265127,417.46676335016537 131.03729900788005,433.5858594210264 106.04248184935875,452.4208051224087 83.15337684437793,473.7652408477421 62.62076181722529,497.38531249260956 44.669596394864186,523.0222336092522 29.496557302184954,550.3951207250453 17.2678835306495,579.2040707606035 8.117554989113273,609.1334468306768 2.1458245919067167,639.8553364279169 -0.5818801330734686,671.0331441009275 -0.03567388205152611,702.3252792644678 3.7784589949853853,733.3888987373855 10.818730060077826,763.8836630042551 21.008004630165203,793.4754650463292 34.234646880814864,821.8400908879521 50.35374295167583,848.6667717527232 69.18868865305808,873.6615889112445 90.53312437839145,896.5506939162253 114.15319602325889,917.0833089433779 139.79011713990144,935.034474365739 167.16300425569457,950.2075134584182 195.97195429125273,962.4361872299537 225.90133036132596,971.58651577149 256.623219958566,977.5582461686965 287.8010276315767,980.2859508936767 319.0931627951169,979.7397446426547 350.1567822680346,975.9256117656179 380.6515465349042,968.8853407005255 410.24334857697824,958.6960661304381 438.607974418601,945.4694238797885 465.4346552833722,929.3503278089274 490.4294724418934,910.5153821075452 513.3185774468742,889.1709463822118 533.8511924740269,865.5508747373444"
     stroke="#000000"
     stroke-linecap="round"
     stroke-width="1"
     id="polyline31"
     transform="matrix(0.83711024,0,0,0.80979438,116.82996,-19.013909)" />
  <polyline
     clip-path="url(#border_clip)"
     fill="none"
     points="400.5,400.5 370.7244223819163,395.277004115283 340.56235892178927,393.2485474779443 310.3555578507711,394.4376133122152 280.44627429502174,398.83072902706675 251.17339238837116,406.37811886604965 222.8685855796718,416.99426788650436 195.85255864009318,430.55889087803115 170.43141394991738,446.9182952419877 146.8931832362581,465.88712239004417 125.50456405850088,487.25044793105417 106.50789801838829,510.76621685028636 90.1184249328374,536.1679860894614 76.5218440808087,563.1679434530673 65.8722101562737,591.460168635539 58.29018776697518,620.7240994205595 53.861684256206274,650.6281637790611 52.63687633828431,680.8335367128041 54.629641576327685,710.9979792769943 59.81740114392079,740.7797162842803 68.14137565223928,769.8413087541908 79.5072511440124,797.8534772316186 93.786247708345,824.4988326546201 110.81657860856564,849.4754724993086 130.40528339059983,872.500401456085 152.33041420201792,893.3127378795743 176.34355054988873,911.6766696819107 202.17261400422848,927.3841261779187 229.5249509553294,940.2571356091174 258.09064849609615,950.1498416348579 287.5460458591184,956.9501559429438 317.55740162249333,960.5810282549966 347.7846751334928,961.0013193368978 377.88537930503134,958.2062671227499 407.5184611312144,952.2275406709851 436.3481659541726,943.1328813412799 464.04784169849626,931.0253352578814 490.30363996977337,916.0420857558443 514.8180720823057,898.3528990390295 537.3133797247881,878.1582006611789 557.5346820729626,855.6868046243055 575.2528636912018,831.1933208246214 590.2671705019447,804.9552702206768"
     stroke="#000000"
     stroke-linecap="round"
     stroke-width="1"
     id="polyline32"
     transform="matrix(0.83711024,0,0,0.80979438,116.82996,-19.013909)" />
  <polyline
     clip-path="url(#border_clip)"
     fill="none"
     points="400.5,400.5 370.7891996160196,399.0250126827093 341.09646293594756,400.8274098339511 311.78221956023293,405.8853127939011 283.2023046933305,414.13732547224254 255.70363978634575,425.48327961353294 229.62002138057082,439.7854507041338 205.26806926964596,456.8702297612396 182.9433831641693,476.5302307107522 162.91695451164003,498.5268077732875 145.4318770273807,522.5929523006592 130.70039586613655,548.4365338991686 118.90133125341185,575.7438464968529 110.17790785016865,604.1834163102423 104.63601619945973,633.4100254870643 102.34292735867939,663.0689025833266 103.32647632005421,692.8000290080599 107.5747241315438,722.2425091613193 115.0361028195457,751.0389512178847 125.62004135423899,778.8398053798837 139.19806505919559,805.3076069378245 155.60535511991566,830.121072635028 174.6427492609662,852.9790006111416 196.07915930621238,873.6039265847049 219.6543762762355,891.7454918936642 245.0822289728547,907.1834825103842 272.05405770981514,919.7305021416344 300.2424610232576,929.2342469657344 329.3052698819799,935.5793543946337 358.88970115596135,938.6888034194557 388.63663992566853,938.5248495412103 418.18499865070834,935.0894829378817 447.1761002834262,928.4244043063634 475.25803212238804,918.6105186724872 502.08991755586175,905.7669533136065 527.3460538421202,890.0496117148234 550.7198656995173,871.6492811118721 571.9276267151085,850.7893165925238 590.7119033989594,827.7229298683869 606.8446800779832,802.7301156277368 620.1301266973352,776.1142527792915 630.4069759319992,748.198421843228 637.5504807536555,719.3214831913231"
     stroke="#000000"
     stroke-linecap="round"
     stroke-width="1"
     id="polyline33"
     transform="matrix(0.83711024,0,0,0.80979438,116.82996,-19.013909)" />
  <polyline
     clip-path="url(#border_clip)"
     fill="none"
     points="400.5,400.5 370.81495022509444,402.7493985661418 341.5917593717519,408.42981143820487 313.2256209643508,417.46442077675124 286.100138363198,429.73104898920394 260.58213718714575,445.06381097219247 237.01670462638032,463.25535742300303 215.72252273016625,484.05967888319327 196.9875587788239,507.19543259449233 181.06517102026646,532.3497471769674 168.17068243432874,559.1824536777121 158.4784688588482,587.3306857723794 152.11960085559699,616.4137869097274 149.1800712057835,646.0384580384648 149.6996320052057,675.8040763022216 153.6712570853496,705.3081127764187 161.04123703026505,734.151575981442 171.70990550427894,761.9444075579397 185.53298706820908,788.3107571369944 202.32354825717698,812.8940650715972 221.854525535039,835.3618842942014 243.86179593918885,855.410376093003 268.04774889052817,872.7684190092878 294.08531086600266,887.201275290056 321.62236850691204,898.5137653134425 350.2865303480416,906.5529070582755 379.69016277339784,911.2099849234742 409.4356320958854,912.4220199200537 439.12068187079103,910.1726213539118 468.34387272413363,904.4922084818488 496.7100111315347,895.4575991433023 523.8354937326875,883.1909709308497 549.3534949087398,867.8582089478612 572.9189274695052,849.6666624970505 594.2131093657193,828.8623410368602 612.9480733170617,805.7265873255612 628.8704610756192,780.572272743086 641.7649496615569,753.7395662423413 651.4571632370374,725.591334147674 657.8160312402887,696.508233010326 660.7555608901022,666.8835618815885 660.2360000906799,637.1179436178318 656.264375010536,607.6139071436346"
     stroke="#000000"
     stroke-linecap="round"
     stroke-width="1"
     id="polyline34"
     transform="matrix(0.83711024,0,0,0.80979438,116.82996,-19.013909)" />
  <polyline
     clip-path="url(#border_clip)"
     fill="none"
     points="400.5,400.5 371.74121803685114,406.33093875495376 343.8949619740764,415.58585150734325 317.3672929293789,428.1297807889901 292.54504405253874,443.77980786449905 269.79017962701676,462.30772009831736 249.43451681562942,483.443338808851 231.7748870191275,506.87845908203207 217.0688074059671,532.2713440929824 205.5307257321154,559.2517083984451 197.3288932098744,587.4261175323572 192.58291102633672,616.383725166302 191.36198628875954,645.7022641741232 193.68392282909977,674.9542042374864 199.51486158405353,703.7129862006352 208.76977433644302,731.5592422634099 221.31370361808985,758.0869113081075 236.96373069359882,782.9091601849477 255.49164292741713,805.6640246104696 276.6272616379508,826.0196874218569 300.06238191113187,843.6793172183588 325.45526692208216,858.3853968315193 352.4356312275449,869.9234785053709 380.610040361457,878.125311027612 409.56764799540184,882.8712932111496 438.886187003223,884.0922179487268 468.13812706658615,881.7702814083866 496.896909029735,875.9393426534328 524.7431650925097,866.6844299010434 551.2708341372072,854.1405006193966 576.0930830140474,838.4904735438877 598.8479474395693,819.9625613100693 619.2036102509567,798.8269425995356 636.8632400474585,775.3918223263546 651.5693196606189,749.9989373154042 663.1074013344706,723.0185730099415 671.3092338567117,694.8441638760296 676.0552160402493,665.8865562420847 677.2761407778265,636.5680172342636 674.9542042374862,607.3160771709004 669.1232654825326,578.5572952077516 659.868352730143,550.7110391449769 647.3244234484962,524.1833701002794"
     stroke="#000000"
     stroke-linecap="round"
     stroke-width="1"
     id="polyline35"
     transform="matrix(0.83711024,0,0,0.80979438,116.82996,-19.013909)" />
  <polyline
     clip-path="url(#border_clip)"
     fill="none"
     points="400.5,400.5 373.00597766361733,409.7527607816655 346.8884323335866,422.3784755040099 322.5592533016276,438.1780291036255 300.4021262546216,456.9022531820504 280.76648232212585,478.2558555402587 263.96198733872103,501.9020771130377 250.2536582288141,527.4680028606165 239.85768353142717,554.5504428616122 232.9380139777923,582.7222908589433 229.60377689038057,611.539259980646 229.90755517983712,640.5468894092479 233.84455808106887,669.2877115003421 241.35269670647187,697.3084663206172 252.3135632247789,724.1672498277699 266.554298223292,749.4404829612326 283.85031680408184,772.7295917369931 303.9288504219887,793.6672929974186 326.4732486075236,811.9233866860556 351.12797273392994,827.2099632997723 377.50420307371604,839.2859443936125 405.1859707180272,847.9608845318846 433.7367176548262,853.0979747264503 462.70618154953013,854.6161999961921 491.6374966510006,852.4916170216625 520.0743988373576,846.7577317455342 547.5684211737404,837.5049709638688 573.6859665037712,824.8792562415243 598.0151455357301,809.0797026419087 620.1722725827362,790.3554785634838 639.8079165152319,769.0018762052755 656.6124114986368,745.3556546324965 670.3207406085437,719.7897288849176 680.7167153059306,692.7072888839219 687.6363848595655,664.5354408865907 690.9706219469772,635.7184717648879 690.6668436575208,606.7108423362861 686.7298407562889,577.9700202451918 679.2217021308859,549.9492654249167 668.2608356125788,523.090481917764 654.0201006140658,497.8172487843012 636.7240820332759,474.5281400085406 616.6455484153689,453.59043874811516"
     stroke="#000000"
     stroke-linecap="round"
     stroke-width="1"
     id="polyline36"
     transform="matrix(0.83711024,0,0,0.80979438,116.82996,-19.013909)" />
  <polyline
     clip-path="url(#border_clip)"
     fill="none"
     points="400.5,400.5 374.58026732873867,413.0021948979147 350.5141454580516,428.78063579428755 328.7134124055356,447.56534919077126 309.5510847580245,469.0349234330455 293.3550352543681,492.8220081533345 280.40238279196717,518.5195997370482 270.91475084560716,545.6880052674709 265.0544754283588,573.862365793472 262.9218274773865,602.5606101950432 264.5532971904131,631.2917035538169 269.92096966831986,659.5640488966606 278.93300254680986,686.8938985561832 291.43519744472457,712.8136312274445 307.21363834109735,736.8797530981316 325.99835173758106,758.6804861506475 347.4679259798553,777.8428137981587 371.2550107001443,794.038863301815 396.95260228385797,806.9915157642159 424.1210078142807,816.479147710576 452.29536834028175,822.3394231278244 480.99361274185287,824.4720710787967 509.7247061006266,822.84060136577 537.9970514434704,817.4729288878633 565.3269011029929,808.4608960093733 591.2466337742542,795.9587011114586 615.3127556449413,780.1802602150858 637.1134886974572,761.3955468186022 656.2758163449683,739.9259725763279 672.4718658486247,716.138887856039 685.4245183110256,690.4412962723253 694.9121502573856,663.2728907419026 700.772425674634,635.0985302159015 702.9050736256063,606.4002858143305 701.2736039125798,577.6691924555568 695.905931434673,549.3968471127131 686.893898556183,522.0669974531904 674.3917036582683,496.1472647819292 658.6132627618955,472.08114291124207 639.8285493654118,450.28040985872616 618.3589751231376,431.1180822112151 594.5718904028487,414.9220327075587 568.874298819135,401.96938024515777"
     stroke="#000000"
     stroke-linecap="round"
     stroke-width="1"
     id="polyline37"
     transform="matrix(0.83711024,0,0,0.80979438,116.82996,-19.013909)" />
  <polyline
     clip-path="url(#border_clip)"
     fill="none"
     points="400.5,400.5 376.55309521596774,415.99968172700676 354.93977291818163,434.615768362657 336.0626484070732,456.0014774359172 320.27336679539314,479.7584336500679 307.86605252509906,505.444089860727 299.0718303855063,532.5799708918178 294.0545200957683,560.6605866227897 292.9075846534671,589.1628483131399 295.65238929580767,617.5558127559275 302.237803505673,645.310572745135 312.5411534764155,671.9101096161862 326.3705072927671,696.8589243254299 343.4682502592714,719.6922676598033 363.51588377463435,739.9847976353313 386.1399583580442,757.3585028135114 410.91903030640503,771.4897439391866 437.3915123931234,782.1152827275205 465.06427236478345,789.0371854951779 493.42181906198573,792.1265102903405 521.9359050443002,791.3257088373012 550.0753668405989,786.6496985519557 577.3160195195233,778.1855846585688 603.1504212629591,766.0910375842557 627.0973260469914,750.5913558572488 648.7106483447774,731.9752692215986 667.5877728558859,710.5895601483385 683.3770544675659,686.8326039341878 695.7843687378601,661.1469477235287 704.5785908774528,634.0110666924379 709.595901167191,605.930450961466 710.7428366094921,577.4281892711158 707.9980319671515,549.0352248283282 701.4126177572862,521.2804648391207 691.1092677865436,494.6809279680694 677.2799139701921,469.7321132588257 660.1821710036878,446.8987699244524 640.1345374883248,426.60623994892427 617.5104629049149,409.23253477074417 592.7313909565542,395.101293645069 566.2589088698358,384.4757548567351 538.5861488981757,377.5538520890776 510.22860220097346,374.46452729391507"
     stroke="#000000"
     stroke-linecap="round"
     stroke-width="1"
     id="polyline38"
     transform="matrix(0.83711024,0,0,0.80979438,116.82996,-19.013909)" />
  <polyline
     clip-path="url(#border_clip)"
     fill="none"
     points="400.5,400.5 379.33912260302884,418.25608441918587 360.8553507397799,438.7843927717576 345.4084500045924,461.685364886237 333.29907674968763,486.51325938988543 324.76292615126437,512.7848295575008 319.9661446709935,539.9887291592386 319.00209620413057,567.5954652333281 321.889544857494,595.0677040642843 328.5722897274704,621.8707297724707 338.92025878667516,647.4828519504675 352.7320405880113,671.4055597734373 369.73880450938475,693.1732249452828 389.6095332359732,712.3621646237859 411.95746563573243,728.5988879252002 436.34762462489766,741.5673654994625 462.3052835021392,751.0151806820145 489.32520596381113,756.7584424970582 516.8814799539031,758.6853648862275 544.4377539439951,756.7584424970587 571.457676405667,751.0151806820153 597.4153352829088,741.5673654994637 621.8054942720742,728.5988879252016 644.1534266718337,712.3621646237876 664.0241553984224,693.1732249452848 681.0309193197961,671.4055597734396 694.8427011211327,647.4828519504699 705.1906701803379,621.8707297724732 711.8734150503146,595.0677040642868 714.7608637036785,567.5954652333307 713.7968152368159,539.9887291592411 709.0000337565455,512.7848295575033 700.4638831581225,486.5132593898877 688.3545099032181,461.6853648862391 672.9076091680308,438.7843927717594 654.4238373047822,418.2560844191874 633.2629599078111,400.5000000000012 609.8368493855088,385.8617415001736 584.6014683323858,374.6262259706315 558.0479947358207,367.0121399409479 530.6932617552421,363.1676829347962 503.06969815256946,363.16768293479595 475.7149651719908,367.0121399409473"
     stroke="#000000"
     stroke-linecap="round"
     stroke-width="1"
     id="polyline39"
     transform="matrix(0.83711024,0,0,0.80979438,116.82996,-19.013909)" />
  <polyline
     clip-path="url(#border_clip)"
     fill="none"
     points="400.5,400.5 381.84698827253754,420.6335826668208 366.3242279723237,443.2685094431252 354.2625597853137,467.9223561623095 345.9190572280459,494.0696688843355 341.47154757195466,521.1531630341962 341.0148217638146,548.5956009551014 344.5586141212817,575.8120947269617 352.0273948628124,602.2225720369519 363.2619798938263,627.2641394137651 378.0229235393146,650.4030793246875 395.99562191268933,671.1462254381934 416.79701815142624,689.051473608091 439.98376660904523,703.7372045558395 465.0616819978507,714.8904174229228 491.4962720903586,722.273400840732 518.7241294931664,725.7287993356847 546.164939697384,725.1829670879517 573.2338494748773,720.6475375642469 599.3539320094325,712.219175570681 623.9684830902127,700.0775170102445 646.5528862954892,684.4813402554096 666.6257942808584,665.7630507363999 683.7593878621956,644.3215962965509 697.5884942388069,620.6139643116619 707.818370017681,595.1454417974805 714.2309831571921,568.4588460942153 716.6896599415313,541.1229556573426 715.1419979436729,513.720387532312 709.6209828921271,486.83517988373376 700.2442856374066,461.04034423587825 687.2117542021404,436.88565272687 670.8011543674388,414.8859206700503 651.3622495775122,395.51003415937083 629.309346339099,379.170956576357 605.1124639975732,366.21692699259756 579.2873170906216,356.9240380585291 552.3843237882315,351.4903515679301 524.9768746850057,350.0316771146516 497.6491119751305,352.5791038121873 470.9834794756657,359.0783376831948 445.5483088477937,369.39085884135966 421.8857065941705,383.2968738022816"
     stroke="#000000"
     stroke-linecap="round"
     stroke-width="1"
     id="polyline40"
     transform="matrix(0.83711024,0,0,0.80979438,116.82996,-19.013909)" />
  <polyline
     clip-path="url(#border_clip)"
     fill="none"
     points="400.5,400.5 384.5433399410501,422.78001084090334 372.17471288312476,447.2346821331047 363.68402896129965,473.29081710833304 359.2703026103323,500.33768204692495 359.03698783498845,527.7413213585796 362.9895533358537,554.8594169640794 371.035354327627,581.0563436866635 382.9858040543657,605.7180677674398 398.5607941032068,628.2665392962633 417.3952599081547,648.1732412116963 439.0477375540944,664.9715772929794 463.01071131679424,678.2678087799768 488.7225094013312,687.7502832759963 515.5804690529133,693.196739615824 542.9550624610583,694.4795174790567 570.2046523579089,691.5685496398123 596.6905314519643,684.5320667170207 621.79189318565,673.5349979065459 644.920382914856,658.835105180622 665.5338884431285,640.7769415656934 683.1492466720822,619.7837751115043 697.3535685349154,596.347667846758 707.8139167661886,571.0179422622168 714.2851096691404,544.3883056571025 716.6154679668547,517.0829341432056 714.750370035953,489.74184248585215 708.7335321911519,463.00588270025577 698.7059840118983,437.50172302344214 684.9027627285582,413.8271593419124 667.6474041489453,392.537103362732 647.3443592532019,374.1305759534381 624.4695142056214,359.03901051585547 599.5590359862995,347.61614055282325 573.1968050915548,340.12970845469937 546.0007298699691,336.75518984465816 518.6082632744121,337.5716805788096 491.66146150510576,342.5600428063708 465.7919347564722,351.60335354466736 441.60604280950537,364.48964525474844 419.67068247243077,380.91687418084405 400.50000000000017,400.5000000000001"
     stroke="#000000"
     stroke-linecap="round"
     stroke-width="1"
     id="polyline41"
     transform="matrix(0.83711024,0,0,0.80979438,116.82996,-19.013909)" />
  <polyline
     clip-path="url(#border_clip)"
     fill="none"
     points="400.5,400.5 387.77126875148014,423.9434066296677 378.86660608158076,449.08939828512433 374.00527433811584,475.31879719705086 373.30697564244457,501.98574851385155 376.7889044259748,528.4336233915693 384.36532404619703,554.0111873752505 395.8496779073662,578.0886359525489 410.959183103035,600.0731024310206 429.32179346971344,619.4232562837049 450.4853605981639,635.6626325032695 473.9287672278316,648.3913637517894 499.0747588832882,657.2960264216888 525.3041577952148,662.1573581651537 551.9711091120155,662.8556568608251 578.4189839897333,659.3737280772948 603.9965479734145,651.7973084570726 628.0739965507128,640.3129545959034 650.0584630291846,625.2034494002346 669.4086168818689,606.8408390335562 685.6479931014336,585.6772719051057 698.3767243499535,562.233865275438 707.2813870198529,537.0878736199813 712.1427187633178,510.85847470805476 712.8410174589891,484.19152339125407 709.3590886754589,457.74364851353624 701.7826690552366,432.166084529855 690.2983151940675,408.08863595255673 675.1888099983986,386.10416947408487 656.8261996317202,366.7540156214007 635.6626325032697,350.51463940183595 612.219225873602,337.7859081533161 587.0732342181453,328.8812454834167 560.8438353062188,324.01991373995173 534.176883989418,323.32161504428046 507.7290091117002,326.8035438278107 482.15144512801896,334.3799634480329 458.07399655072066,345.8643173092021 436.08953007224886,360.97382250487095 416.73937621956463,379.33643287154933 400.4999999999999,400.4999999999999"
     stroke="#000000"
     stroke-linecap="round"
     stroke-width="1"
     id="polyline42"
     transform="matrix(0.83711024,0,0,0.80979438,116.82996,-19.013909)" />
  <polyline
     clip-path="url(#border_clip)"
     fill="none"
     points="400.5,400.5 390.8568824606876,425.2803872673336 385.4240021650104,451.310007331577 384.3495539249726,477.87884001153316 387.66284588768497,504.26215681147033 395.2735000855121,529.7402896252603 406.9739177114322,553.6182614062781 422.4449418733224,575.2447433295644 441.2645633619965,594.0298213442828 462.9194319623352,609.4610874912355 486.81885930895055,621.1176170562422 512.3109313249843,628.6814502990743 538.7002907387111,631.946265566309 565.2671046172504,630.8230072081942 591.2866995325107,625.3423147846235 616.0493287632253,615.6536872978129 638.879532335337,602.0214052492358 659.1545618092978,584.8173217564703 676.3213672341149,564.5107193695004 689.9116829083214,541.6555092660811 699.5548004476339,516.8751219987475 704.987680743311,490.8455019345041 706.0621289833488,464.27666925454804 702.7488370206365,437.89335245461086 695.1381828228093,412.41521964082096 683.4377651968892,388.5372478598032 667.966741034999,366.9107659365169 649.1471195463249,348.12568792179843 627.4922509459863,332.69442177484575 603.592823599371,321.037892209839 578.1007515833372,313.47405896700695 551.7113921696103,310.2092436997723 525.1445782910711,311.33250205788704 499.12498337581087,316.8131944814578 474.36235414509633,326.50182196826836 451.5321505729846,340.13410401684547 431.25712109902395,357.338187509611 414.09031567420675,377.64478989658085 400.5000000000002,400.50000000000006"
     stroke="#000000"
     stroke-linecap="round"
     stroke-width="1"
     id="polyline43"
     transform="matrix(0.83711024,0,0,0.80979438,116.82996,-19.013909)" />
  <polyline
     clip-path="url(#border_clip)"
     fill="none"
     points="400.5,400.5 394.1626082341658,425.6648917134026 392.1692614225286,451.53883377543633 394.57730452358186,477.3774799815442 401.31746252162117,502.4374995246812 412.1958333428178,525.997961269254 426.89946606484585,547.381073627296 445.00536394512926,565.971683388401 465.9926532669775,581.2349725575799 489.25756792806254,592.7318440952363 514.1308186919085,600.1315539395328 539.8968474206531,603.2212259108671 565.8144123798609,601.9119757719753 591.1379124136471,596.2414682656078 615.1388365324202,586.3728335684555 637.1267218476556,572.5899743329776 656.4690169320761,555.2893983249903 672.6092791725308,534.9688116171639 685.0831826108633,512.2128004914833 693.5318757563318,487.6760139562694 697.7123050896379,462.06433068612534 697.5042072701509,436.11455217765894 692.9135688932547,410.57320631191584 684.0724542668985,386.17507110644226 671.2352061619055,363.62203648952664 654.7711288335375,343.56291220489084 635.1538638104619,326.57476273664827 612.9477640903276,313.1463062147543 588.7916587315391,303.6638548842147 563.3804749043585,298.40020160515326 537.4452461014677,297.5067720988993 511.7320816353737,301.0092687056847 486.98070243192535,308.80693097511175 463.90316060608313,320.67543436085697 443.163355019002,336.2733436294422 425.3579321165531,355.15193533025223 410.9991214973882,376.76810675222004 400.49999999999994,400.49999999999994"
     stroke="#000000"
     stroke-linecap="round"
     stroke-width="1"
     id="polyline44"
     transform="matrix(0.83711024,0,0,0.80979438,116.82996,-19.013909)" />
  <polyline
     clip-path="url(#border_clip)"
     fill="none"
     points="400.5,400.5 397.4197321886328,425.5867681467116 398.74253213887374,450.82729480778295 404.4282072436037,475.4546593529401 414.3040011418561,498.7205717725262 428.0698428334251,519.918109090792 445.3074641843647,538.4031948627933 465.4931087925836,553.6141691112525 488.01344606109024,565.0888540807548 512.1842069378215,572.4785972749723 537.2709750845331,575.5588650863396 562.5115017456045,574.2360651360987 587.1388662907616,568.5503900313686 610.4047787103477,558.6745961331162 631.6023160286135,544.9087544415472 650.0874018006148,527.6711330906077 665.298376049074,507.48548848238875 676.7730610185763,484.9651512138821 684.1628042127938,460.79439033715084 687.243072024161,435.7076221904392 685.9202720739202,410.4670955293679 680.2345969691901,385.8397309842108 670.3588030709378,362.5738185646247 656.5929613793687,341.376281246359 639.3553400284293,322.8911954743577 619.1696954202104,307.68022122589844 596.6493581517037,296.20553625639616 572.4785972749725,288.81579306217856 547.3918291282608,285.73552525081135 522.1513024671896,287.0583252010523 497.5239379220325,292.74400030578227 474.25802550244634,302.6197942040346 453.06048818418066,316.3856358956036 434.57540241217936,333.6232572465432 419.3644281637201,353.80890185476204 407.8897431942179,376.3292391232687 400.5000000000002,400.4999999999999"
     stroke="#000000"
     stroke-linecap="round"
     stroke-width="1"
     id="polyline45"
     transform="matrix(0.83711024,0,0,0.80979438,116.82996,-19.013909)" />
  <polyline
     clip-path="url(#border_clip)"
     fill="none"
     points="400.5,400.5 400.56168597865224,425.24037235563344 405.03994470223375,449.57214229248797 413.7908412506451,472.71326670454613 426.53311460855866,493.9199708126238 442.85721762587366,512.5106536977531 462.23848020009694,527.8877955155411 484.053972605137,539.5571622756097 507.6025269652488,547.1436909287033 532.1272733674834,550.403544201695 556.8399662834444,549.2319477281745 580.9463194291412,543.6665575827938 603.6715347796979,533.8862499840434 624.285205215378,520.2053720654111 642.1247904073944,503.06363849986565 656.6169114092157,483.0119987084691 667.2957795276868,460.694928892661 673.8181671548782,436.82971803886767 675.9744393858132,412.1834136602909 673.6952918568031,387.548168258705 667.053978244719,363.71577889126434 656.2639558335443,341.45223816159375 641.6720248216343,321.47311458724715 623.7471818779925,304.4205536387817 603.0655462034376,290.84263865597495 580.2918425854562,281.17577499832 556.1580365965958,275.73066361769577 531.4398086187003,274.68231487412805 506.93162283720505,278.0644235588194 483.42119250852954,285.7682859158355 461.6641622078841,297.5462934702628 442.35982079087546,313.01989136832515 426.1286256743114,331.69174544186 413.4922608243101,352.9617269376913 404.85686940438626,376.14620114954386 400.4999999999999,400.49999999999994"
     stroke="#000000"
     stroke-linecap="round"
     stroke-width="1"
     id="polyline46"
     transform="matrix(0.83711024,0,0,0.80979438,116.82996,-19.013909)" />
  <polyline
     clip-path="url(#border_clip)"
     fill="none"
     points="400.5,400.5 403.7311238250028,425.1941914501536 411.5772634935981,448.8306324861944 423.7548390752453,470.55504054493355 439.8237212600599,489.58223891673504 459.2031387788187,505.2245350775601 481.19266898981385,516.9165756885516 504.9975529780578,524.2357799387133 529.7574202131951,526.917612716444 554.5773845821432,524.8651455977092 578.5603879048218,518.152560091831 600.8396219540437,507.02246652846264 620.6098571632917,491.8771354881603 637.1565457212585,473.2639586954956 649.8816471914822,451.8556648559145 658.3252432519009,428.42600548754507 662.1821603413159,403.82178952534224 661.3129994270163,378.93227743983937 655.7491742490215,354.65704104679776 645.6917759456694,331.8734506379735 631.5043050959388,311.4049645328073 613.6995338614337,293.9913671492601 592.9209730644482,280.26203126745895 569.9196140301973,270.7131708576077 545.5267858036353,265.6899066142315 520.6241087517643,265.37379239507345 496.11163050653096,269.7762533916414 472.8752958983572,278.7381731930191 451.75492660166174,291.93564466753054 433.5138677914126,308.8916768104103 418.81139885962733,328.99343444150384 408.17890534040987,351.51438766540485 402.0006732522363,375.6405705548302 400.50000000000006,400.4999999999998"
     stroke="#000000"
     stroke-linecap="round"
     stroke-width="1"
     id="polyline47"
     transform="matrix(0.83711024,0,0,0.80979438,116.82996,-19.013909)" />
  <polyline
     clip-path="url(#border_clip)"
     fill="none"
     points="400.5,400.5 406.68712558408123,424.210324004657 417.3810220301296,446.25801245946343 432.1707288949297,465.795785061587 450.48788603783044,482.0728161668374 471.6285753822102,494.46358859810397 494.7803720923997,502.4919319196784 519.0535656045034,505.84932140005935 543.515350704415,504.4067344443615 567.2256747090721,498.21960886028035 589.2733631638785,487.525712414232 608.811135766002,472.73600554943187 625.0881668712525,454.4188484065311 637.478939302519,433.2781590621513 645.5072826240935,410.12636235196186 648.8646721044745,385.85316883985814 647.4220851487767,361.3913837399465 641.2349595646954,337.68105973528947 630.5410631186471,315.63337128048306 615.751356253847,296.09559867835947 597.4341991109462,279.8185675731091 576.2935097665664,267.42779514184247 553.1417130563771,259.39945182026804 528.8685195442732,256.0420623398871 504.40673444436163,257.48464929558486 480.6964104397046,263.6717748796661 458.6487219848982,274.36567132571446 439.1109493827746,289.1553781905145 422.8339182775242,307.4725353334153 410.4431458462576,328.613224677795 402.4148025246832,351.76502138798446 399.0574130443022,376.03821490008824 400.5,400.49999999999983"
     stroke="#000000"
     stroke-linecap="round"
     stroke-width="1"
     id="polyline48"
     transform="matrix(0.83711024,0,0,0.80979438,116.82996,-19.013909)" />
  <polyline
     clip-path="url(#border_clip)"
     fill="none"
     points="400.5,400.5 409.36917207297375,422.6672727853581 422.5190308786662,442.5954289818266 439.41121965252944,459.46860753326325 459.3541702014137,472.5960185272579 481.5314157866504,481.4402242153111 505.03501736826433,485.6391417774039 528.9027347359482,485.0208670351923 552.1574207363313,479.61071222926677 573.8470257922485,469.630169733048 593.0835749242899,455.48784412899516 609.0795215507915,437.7627238889909 621.1799897374201,417.18047751827413 628.8895848948707,394.58374460157336 631.8926752915581,370.89763803950166 630.066314053794,347.0918698177095 623.4852726252408,324.1410508842562 612.4189796152227,302.984790462884 597.3204903598044,284.48922834099886 578.8079387830996,269.4115750050072 557.6392309217914,258.36911135403335 534.6810161629389,251.8139171473827 510.8732065162456,250.01436280607814 487.19049650594576,253.0441222962913 464.6024590624613,260.77915690851125 444.0338510927104,272.90279341688574 426.32675382368325,288.9186887182951 412.2060978980695,308.1711501773118 402.2499846285704,329.87197975973555 396.86601846223294,353.1327429527227 396.27461960649606,377.0011413781288 400.50000000000006,400.4999999999999"
     stroke="#000000"
     stroke-linecap="round"
     stroke-width="1"
     id="polyline49"
     transform="matrix(0.83711024,0,0,0.80979438,116.82996,-19.013909)" />
  <polyline
     clip-path="url(#border_clip)"
     fill="none"
     points="400.5,400.5 411.8515146263056,420.97867448051795 427.2127272596721,438.6497281905474 445.912279196745,452.7408512878367 467.13291028746863,462.6361940763235 489.9471771252928,467.90328259302817 513.3579867744062,468.3119197954759 536.3421745156143,463.84424627706085 557.8952210542568,454.6955208088138 577.0751548336034,441.26558659415264 593.043720711963,424.1413962022324 605.1030157347709,404.07135892416215 612.7259908426125,381.93263169571753 615.5794854441822,358.6927831301813 613.5387881328052,335.36750612703327 606.6930871733406,312.9762272184083 595.341572547035,292.4975527378904 579.9803599136685,274.82649902786085 561.2808079765956,260.7353759305716 540.0601768858719,250.84003314208474 517.2459100480478,245.57294462538002 493.83510039893434,245.1643074229323 470.85091265772627,249.63198094134736 449.29786611908366,258.7807064095944 430.1179323397371,272.2106406242556 414.1493664613774,289.3348310161758 402.0900714385695,309.40486829424606 394.46709633072794,331.5435955226907 391.61360172915823,354.783444088227 393.6542990405353,378.108721091375 400.49999999999983,400.5"
     stroke="#000000"
     stroke-linecap="round"
     stroke-width="1"
     id="polyline50"
     transform="matrix(0.83711024,0,0,0.80979438,116.82996,-19.013909)" />
  <polyline
     clip-path="url(#border_clip)"
     fill="none"
     points="400.5,400.5 414.16736816820185,419.16937499503456 431.5285646248728,434.4641902258007 451.7717991192828,445.669277131074 473.95052050521247,452.26069830072356 497.02767642053414,453.93024620669496 519.9242047030639,450.5998546444742 541.5694891379742,442.42524902204644 560.9514202820944,429.7886648128947 577.1637205765946,413.2809746500844 589.4483208783818,393.6740597786486 597.2308069306969,371.88471774645495 600.1472783353455,348.9317939698145 598.0613641308715,325.88854165418053 591.0705993471491,303.8324376670965 579.501864375788,283.7948009173995 563.8961004063237,266.7125690292718 544.9830156174074,253.38448818026504 523.6469648333849,244.43376461778084 500.8855980755998,240.27892422758623 477.76321155620394,241.1142427285533 455.3609823701574,246.90066155596668 434.7264138559103,257.3676141965991 416.82435550351323,272.0256775781569 402.49188766481535,290.1894569481858 392.39918060656026,311.0096341709341 387.01815809355384,333.512680899431 386.60043075792726,356.64637967899216 391.1655310656238,379.3290244659447 400.5000000000001,400.49999999999983"
     stroke="#000000"
     stroke-linecap="round"
     stroke-width="1"
     id="polyline51"
     transform="matrix(0.83711024,0,0,0.80979438,116.82996,-19.013909)" />
  <polyline
     clip-path="url(#border_clip)"
     fill="none"
     points="400.5,400.5 416.047929966998,416.9250604080388 434.86096065075833,429.4785703617646 455.99572813642226,437.53104445320514 478.3924469311553,440.67869800721195 500.9280520340362,438.7636945311306 522.4725141047148,431.88206029560996 541.9455038531282,420.378869176421 558.370564261167,404.830939209423 570.9240742148928,386.01790852566273 578.9765483063334,364.88314103999875 582.1242018603402,342.48642224526577 580.2091983842588,319.9508171423847 573.3275641487382,298.4063550717061 561.8243730295493,278.9333653232928 546.2764430625513,262.508304915254 527.463412378791,249.95479496152814 506.32864489312703,241.9023208700876 483.931926098394,238.75466731608077 461.396320995513,240.6696707921621 439.8518589248344,247.55130502768276 420.378869176421,259.05449614687166 403.9538087683822,274.6024261138697 391.40029881465637,293.41545679763 383.34782472321587,314.5502242832939 380.200171169209,336.94694307802695 382.1151746452903,359.48254818090794 388.996808880811,381.02701025158655 400.49999999999994,400.49999999999994"
     stroke="#000000"
     stroke-linecap="round"
     stroke-width="1"
     id="polyline52"
     transform="matrix(0.83711024,0,0,0.80979438,116.82996,-19.013909)" />
  <polyline
     clip-path="url(#border_clip)"
     fill="none"
     points="400.5,400.5 417.07069248194875,414.19455633941027 436.27324857354506,423.8584355922618 457.1447719294649,429.007050499971 478.6386772167509,429.3822280123219 499.6771702735663,424.9651551622402 519.2052932089457,415.9773224265191 536.2438243965695,402.86941726844873 549.9383807359798,386.2987247865 559.6022599888313,367.09616869490367 564.7508748965405,346.2246453389838 565.1260524088914,324.73074005169775 560.7089795588097,303.69224699488245 551.7211468230886,284.1641240595029 538.6132416650182,267.12559287187923 522.0425491830695,253.43103653246894 502.83999309147316,243.76715727961744 481.9684697355533,238.6185423719082 460.47456444826724,238.24336485955735 439.43607139145195,242.660437709639 419.9079484560724,251.6482704453601 402.8694172684487,264.7561756034305 389.1748609290384,281.32686808537926 379.51098167618693,300.52942417697557 374.36236676847767,321.40094753289543 373.98718925612684,342.8948528201814 378.4042621062085,363.9333458769968 387.3920948419296,383.46146881237627 400.49999999999994,400.5"
     stroke="#000000"
     stroke-linecap="round"
     stroke-width="1"
     id="polyline53"
     transform="matrix(0.83711024,0,0,0.80979438,116.82996,-19.013909)" />
  <polyline
     clip-path="url(#border_clip)"
     fill="none"
     points="400.5,400.5 418.54907567682363,411.9248543989411 438.7463889281814,418.87934706564516 460.00309736881275,420.98855950034687 481.17324634458953,418.13878351474216 501.11554764453865,410.483651269852 518.7549066437076,398.43585292645554 533.1403809326735,382.6448884117017 543.4964458689765,363.9620527099196 549.2648033113335,343.39454232966415 550.1344796169429,322.05115707923653 546.0585903110624,301.08252438201663 537.2568676411764,281.61906865423987 524.2038147546596,264.7100698321185 507.60312511128075,251.26709641888417 488.34974618664285,242.0148625908284 467.4816326221245,237.4521586684731 446.1237898214988,237.82496120128434 425.427624618419,243.11317230822195 406.5088726359858,253.03170315970848 390.3874486905086,267.04584319022433 377.9324629197632,284.40008648329933 369.81536683050336,304.15886129102546 366.47375517393306,325.2569669491499 368.08777509940194,346.5569991206021 374.5704143749545,366.91066755771124 385.5721922392771,385.2207007266821 400.5,400.4999999999999"
     stroke="#000000"
     stroke-linecap="round"
     stroke-width="1"
     id="polyline54"
     transform="matrix(0.83711024,0,0,0.80979438,116.82996,-19.013909)" />
  <polyline
     clip-path="url(#border_clip)"
     fill="none"
     points="400.5,400.5 419.49642252618344,409.38924625663526 440.0681794112715,413.4740456966597 461.0197149203967,412.5170046242609 481.13340196550166,406.57374278786403 499.24030616580245,395.9896609625226 514.2881200650965,381.3798675123534 525.4023194161348,363.5934305282418 531.9369873511059,343.6640330766365 533.5123527221808,322.74989929701246 530.0368610202127,302.0664826248583 521.7124951900217,282.815828055999 509.02303711582,266.1167136606945 492.7059519765766,252.9396312687886 473.70952945039323,244.05038501215336 453.1377725653051,239.96558557212893 432.1862370561799,240.9226266445277 412.072550011075,246.86588848092458 393.9656458107742,257.449970306266 378.9178319114802,272.05976375643513 367.80363256044194,289.84620074054675 361.2689646254708,309.7755981921521 359.6935992543959,330.6897319717761 363.16909095636396,351.3731486439302 371.4934567865549,370.6238032127895 384.1829148607566,387.3229176080941 400.5,400.49999999999994"
     stroke="#000000"
     stroke-linecap="round"
     stroke-width="1"
     id="polyline55"
     transform="matrix(0.83711024,0,0,0.80979438,116.82996,-19.013909)" />
  <polyline
     clip-path="url(#border_clip)"
     fill="none"
     points="400.5,400.5 420.30935362362146,406.8600876553711 441.07804945767646,408.09397554419854 461.5011139609911,404.124133952505 480.2952908800449,395.20000262755275 496.27967295886606,381.8823175611476 508.4499026849971,365.00787788503135 516.0412797657713,345.63696670390243 518.5768100600716,324.98672960849905 515.897176874479,304.35469694178494 508.1707514170458,285.03725519551796 495.88301341506764,268.2481902791973 479.80604663834805,255.04242088737678 460.95002603641603,246.2497140783671 440.4997447312839,242.42254795829191 419.7401691082266,243.80139744980795 399.97569965201933,250.29962436830954 382.44821066722966,261.5089212177004 368.2590187483671,276.72496665202317 358.2996830078915,294.9916805759388 353.19598513825144,315.16129817333314 353.2686092466844,335.9664881918973 358.5129920933645,356.0999840266284 368.59960981654416,374.29672408841225 382.89468312869076,389.4133402762382 400.50000000000006,400.4999999999999"
     stroke="#000000"
     stroke-linecap="round"
     stroke-width="1"
     id="polyline56"
     transform="matrix(0.83711024,0,0,0.80979438,116.82996,-19.013909)" />
  <polyline
     clip-path="url(#border_clip)"
     fill="none"
     points="400.5,400.5 419.7056650379587,404.1636765463834 439.21906809893096,402.93599728581626 457.81411030331947,396.89410182132855 474.32239676164113,386.41762466549125 487.706651122489,372.1648414077933 497.1258914605266,355.03130683838606 501.9882722637724,336.0935839469977 501.98827226377267,316.541599510967 497.12589146052744,297.6038766195785 487.70665112249037,280.470342050171 474.322396761643,266.2175587924727 457.8141103033216,255.74108163663485 439.2190680989333,249.6991861721466 419.70566503796107,248.4715069115789 400.5000000000023,252.1351834579617 382.808835552887,260.4600135398259 367.743772622379,272.9229174665447 356.25140451782795,288.74080514904784 349.0538389932161,306.9197805301222 346.60332556124916,326.31759172898006 349.05383899321555,345.715402927838 356.25140451782687,363.89437830891256 367.7437726223775,379.7122659914161 382.80883555288506,392.1751699181353 400.5000000000001,400.5"
     stroke="#000000"
     stroke-linecap="round"
     stroke-width="1"
     id="polyline57"
     transform="matrix(0.83711024,0,0,0.80979438,116.82996,-19.013909)" />
  <polyline
     clip-path="url(#border_clip)"
     fill="none"
     points="400.5,400.5 419.7818447149288,401.6793281441001 438.71190908769245,397.827963019223 456.0001405146976,389.2083687939472 470.4683745943471,376.40795657017236 481.13062508400014,360.2990532872673 487.260277232989,341.97945408274074 488.43960537708904,322.6976093678119 484.58824025221196,303.76754499504824 475.9686460269362,286.4793135680431 463.16823380316134,272.0110794883936 447.0593305202563,261.3488289987405 428.73973131572967,255.2191768497517 409.45788660080086,254.0398487056516 390.52782222803717,257.8912138305287 373.239590801032,266.51080805580443 358.7713567213825,279.3112202795793 348.10910623172947,295.4201235624843 341.97945408274063,313.73972276701096 340.8001259386406,333.02156748193977 344.65149106351765,351.95163185470346 353.2710852887934,369.2398632817086 366.07149751256827,383.7080973613581 382.1804007954733,394.37034785101116 400.4999999999999,400.5"
     stroke="#000000"
     stroke-linecap="round"
     stroke-width="1"
     id="polyline58"
     transform="matrix(0.83711024,0,0,0.80979438,116.82996,-19.013909)" />
  <polyline
     clip-path="url(#border_clip)"
     fill="none"
     points="400.5,400.5 419.7925686528268,399.2097660152419 438.02161556285307,392.76230467673673 453.835175713103,381.63579469678854 466.06042968945644,366.6554384202137 473.7906863313029,348.9322603414761 476.4526278670876,329.7807075005307 473.8488302706736,310.62116295906606 466.1724052982056,292.87460248663854 453.99267827258404,277.8572072883759 438.2129638287555,266.68274886612164 420.0035711996287,260.1799856813086 400.7150077340775,258.83119793119226 381.7778179450356,262.73641903290536 364.5964865672774,271.60601660253155 350.4452743497302,284.78217316404067 340.37371196508116,301.287673462171 335.12876112106767,319.89838004744985 335.0994158277366,339.2340219507645 340.28785249124866,357.860563066822 350.30926849978937,374.3965580518001 364.4204212729331,387.6156078048065 381.57475116372416,396.5373158787893 400.50000000000006,400.4999999999999"
     stroke="#000000"
     stroke-linecap="round"
     stroke-width="1"
     id="polyline59"
     transform="matrix(0.83711024,0,0,0.80979438,116.82996,-19.013909)" />
  <polyline
     clip-path="url(#border_clip)"
     fill="none"
     points="400.5,400.5 418.42157974374936,397.07281840576496 434.7539361672944,388.93754165289914 448.2857731102598,376.69752600174786 458.0134961306207,361.26055741881123 463.2156445133286,343.7715252444535 463.5063987110834,325.5275109880482 458.86419481514963,307.88158972618123 449.6333238518189,292.142478714127 436.4983972920167,279.47747581400756 420.4335725503928,270.8258863523918 402.6303041863505,266.8293591412596 384.40897916991725,267.78429832096515 367.1209898205467,273.6198804211057 352.0485072209928,283.9033070133256 340.30938845364466,297.87190339082633 332.77427025458155,314.48968266236494 330.00199786975594,332.52418016065315 332.198178059648,350.63785970857924 339.19993018642936,367.4873125586437 350.48796632574124,381.8228918740749 365.2251044764601,392.581393317959 382.3183585198682,398.9649080550723 400.5,400.49999999999994"
     stroke="#000000"
     stroke-linecap="round"
     stroke-width="1"
     id="polyline60"
     transform="matrix(0.83711024,0,0,0.80979438,116.82996,-19.013909)" />
  <polyline
     clip-path="url(#border_clip)"
     fill="none"
     points="400.5,400.5 417.80677983608535,394.8159053618647 432.8111189689718,384.48617316130196 444.29745507635363,370.3476568679186 451.3352335186819,353.54577498681044 453.35429534183913,335.44171606334584 450.1910681647362,317.5021632825197 442.10181784082556,301.1804725200061 429.74188732272637,287.79893009255136 414.112604673678,278.4416289845307 396.48016142298326,273.8666420817036 378.27303325863573,274.44460761444225 360.9662534225504,280.12870225257757 345.9619142896639,290.4584344531403 334.4755781822821,304.59695074652365 327.4377997399539,321.3988326276318 325.41873791679666,339.5028915510964 328.5819650938996,357.44244433192256 336.67121541781023,373.76413509443614 349.03114593590936,387.1456775218909 364.66042858495774,396.5029786299115 382.2928718356525,401.07796553273863 400.5,400.5"
     stroke="#000000"
     stroke-linecap="round"
     stroke-width="1"
     id="polyline61"
     transform="matrix(0.83711024,0,0,0.80979438,116.82996,-19.013909)" />
  <polyline
     clip-path="url(#border_clip)"
     fill="none"
     points="400.5,400.5 416.21232361522937,393.1124309159785 429.20686899631505,381.5974371817297 438.4308953580185,366.8878951072977 443.13712694191156,350.1754843105379 442.9442928541041,332.81414492166977 437.86801536556186,316.21038940611834 428.31954428862184,301.70935528941743 415.0724399629937,290.48583011473147 399.1999039975768,283.4490771428393 381.98783485868324,281.1691722503423 364.83065202382943,283.830819772514 349.11832840860006,291.2183888565355 336.1237830275144,302.73338259078434 326.89975666581097,317.4429246652163 322.19352508191787,334.15533546197605 322.3863591697253,351.5166748508442 327.46263665826757,368.1204303663956 337.0111077352076,382.62146448309653 350.2582120608357,393.8449896577825 366.13074802625255,400.88174262967465 383.34281716514613,403.1616475221717 400.49999999999994,400.49999999999994"
     stroke="#000000"
     stroke-linecap="round"
     stroke-width="1"
     id="polyline62"
     transform="matrix(0.83711024,0,0,0.80979438,116.82996,-19.013909)" />
  <polyline
     clip-path="url(#border_clip)"
     fill="none"
     points="400.5,400.5 414.81851872324256,391.3529824765782 425.804775088857,378.3918837935719 432.4825920063666,362.76835444781085 434.25861613753375,345.8706135843953 430.9750399443507,329.200099633554 422.92362358131857,314.2380609171647 410.8197707253515,302.3139402350041 395.73896181958554,294.48724803782386 379.0211929163378,291.4534202742164 362.1519111473823,293.4820258547121 346.6300262275144,300.39281427109495 333.8347257485345,311.5717316450739 324.90292830925114,326.02548211010003 320.62826330869217,342.46978650811667 321.3905534912156,359.44349622871874 327.12206602884885,375.4384226753325 337.31353088029476,389.0333464405978 351.0593916689955,399.02029888763053 367.13826834115844,404.51189546449285 384.12148214347394,405.020183715856 400.49999999999994,400.49999999999994"
     stroke="#000000"
     stroke-linecap="round"
     stroke-width="1"
     id="polyline63"
     transform="matrix(0.83711024,0,0,0.80979438,116.82996,-19.013909)" />
  <polyline
     clip-path="url(#border_clip)"
     fill="none"
     points="400.5,400.5 413.13750403499137,390.0559578342769 422.1351237537292,376.35094545227577 426.69338115879987,360.6027133475936 426.4072550761797,344.21056105270964 421.30216906395316,328.63100323479983 411.83173241760744,315.2483519757489 398.83743499349714,305.25171456872124 383.47387714228944,299.5293361168519 367.1061784009272,298.5896750578337 351.18868063104344,302.51622440039506 337.13572336228066,310.9600930040714 326.19597351835563,323.1710060881191 319.34147588120254,338.063970438311 317.1812826463499,354.3156808154351 319.90733646256626,370.4821014330275 327.2774154851906,385.1267748740468 338.63665585000376,396.94845763616763 352.9757392013867,404.89674132737525 369.0205750575383,408.26538606123734 385.34550934103703,406.7550729700963 400.49999999999994,400.49999999999994"
     stroke="#000000"
     stroke-linecap="round"
     stroke-width="1"
     id="polyline64"
     transform="matrix(0.83711024,0,0,0.80979438,116.82996,-19.013909)" />
  <polyline
     clip-path="url(#border_clip)"
     fill="none"
     points="400.5,400.5 411.59555705592766,388.60147179293 418.471211471858,373.8565833149359 420.45392628805854,357.7086669839226 417.3496195639332,341.73839335951857 409.4621624706161,327.50904409551964 397.5636342635461,316.41348703959204 382.818745785552,309.5378326236617 366.67082945453876,307.5551178074611 350.7005558301347,310.65942453158647 336.4712065661357,318.54688162490356 325.3756495102081,330.44540983197356 318.4999950942778,345.19029830996766 316.51728027807724,361.3382146409809 319.62158700220255,377.30848826538494 327.50904409551964,391.53783752938386 339.40757230258964,402.6333945853115 354.15246078058374,409.50904900124186 370.30037711159696,411.4917638174424 386.270650736001,408.3874570933171 400.49999999999994,400.5"
     stroke="#000000"
     stroke-linecap="round"
     stroke-width="1"
     id="polyline65"
     transform="matrix(0.83711024,0,0,0.80979438,116.82996,-19.013909)" />
  <polyline
     clip-path="url(#border_clip)"
     fill="none"
     points="400.5,400.5 409.511087407089,388.0973022090977 414.2484964110207,373.51705650883196 414.248496411021,358.18647893489003 409.5110874070897,343.60623323462414 400.50000000000114,331.20353544372153 388.0973022090988,322.1924480366325 373.5170565088331,317.45503903270077 358.18647893489117,317.4550390327005 343.6062332346253,322.1924480366318 331.20353544372267,331.20353544372034 322.19244803663366,343.60623323462266 317.4550390327019,358.1864789348884 317.4550390327017,373.5170565088303 322.1924480366329,388.0973022090962 331.20353544372153,400.4999999999988 343.6062332346238,409.5110874070878 358.1864789348895,414.2484964110195 373.51705650883144,414.2484964110198 388.09730220909734,409.51108740708855 400.49999999999994,400.49999999999994"
     stroke="#000000"
     stroke-linecap="round"
     stroke-width="1"
     id="polyline66"
     transform="matrix(0.83711024,0,0,0.80979438,116.82996,-19.013909)" />
  <polyline
     clip-path="url(#border_clip)"
     fill="none"
     points="400.5,400.5 407.88879282825775,386.9064292142329 410.46341526184307,371.65025847937767 407.94486701069377,356.38473061843536 400.60607185712456,342.76410244420924 389.2423021291641,332.2643803651986 375.08499860389196,326.0233721886385 359.6683247914692,324.71738798967874 344.66291651381323,328.48795142070946 331.694842590707,336.9264634276587 322.1693950521185,349.1184802975688 317.118803941401,363.74280782395147 317.0903791733963,379.21467319950125 322.08720101277345,393.85745974005073 331.56778627955657,406.0843943176883 344.50476645365234,414.57049885048934 359.4962189952674,418.39617223684604 374.91758740516417,417.1468434039079 389.09772712894494,410.9578965160579 400.49999999999994,400.5"
     stroke="#000000"
     stroke-linecap="round"
     stroke-width="1"
     id="polyline67"
     transform="matrix(0.83711024,0,0,0.80979438,116.82996,-19.013909)" />
  <polyline
     clip-path="url(#border_clip)"
     fill="none"
     points="400.5,400.5 405.8147116381671,387.02597015224273 406.4664472005977,372.55631635915614 402.38458102638333,358.6590501290328 394.01144665217953,346.84015589621015 382.25440310999744,338.38039423985373 368.3875084969595,334.19651160215676 353.9134560114277,334.74189658654177 340.4007338282738,339.9574482674306 329.3136550675304,349.2779806925765 321.85367674667634,361.69346955075315 318.8292032702662,375.8585039780186 320.56798326901037,390.23808270102325 326.88159295009336,403.27395524297674 337.085854738822,413.553482541555 350.07497853495187,419.9627183106569 364.44139122815056,421.80712240516056 378.628269085249,418.88682502254835 391.09824375833966,411.51828569730895 400.49999999999994,400.5"
     stroke="#000000"
     stroke-linecap="round"
     stroke-width="1"
     id="polyline68"
     transform="matrix(0.83711024,0,0,0.80979438,116.82996,-19.013909)" />
  <polyline
     clip-path="url(#border_clip)"
     fill="none"
     points="400.5,400.5 403.9678878942068,387.11603478660544 402.90210965618934,373.331228366945 397.4181588952901,360.63937840989877 388.1103067687159,350.4158437926556 375.9872034805874,343.76850312547805 362.36257538150267,341.4176989137726 348.71286233388446,343.6181772703631 336.5172225435624,350.1314822213734 327.0972428166667,360.2517961110221 321.4737241226521,372.88242589651617 320.256061969898,386.6546468561832 323.57620894663035,400.07602515101706 331.0743756105319,411.69214618863106 341.9380192575255,420.2442230119107 354.98989553166024,424.80550539790937 368.8156311179067,424.88170762451557 381.9169930371039,420.4645719980772 392.8742454367311,412.0327637026398 400.49999999999994,400.5"
     stroke="#000000"
     stroke-linecap="round"
     stroke-width="1"
     id="polyline69"
     transform="matrix(0.83711024,0,0,0.80979438,116.82996,-19.013909)" />
  <polyline
     clip-path="url(#border_clip)"
     fill="none"
     points="400.5,400.5 402.1929911516617,386.7116935613735 399.06800389957675,373.1758866715209 391.50195782624655,361.52519740859236 380.4074297510623,353.1648708435578 367.12258349768706,349.1032857454396 353.24976758772726,349.8303292196828 340.4622483608813,355.25830909327476 330.302389359591,364.7325308850091 323.9956195229614,377.11026362218087 322.3026283712997,390.89857006080734 325.42761562338467,404.43437695065995 332.99366169671487,416.0850662135885 344.0881897718991,424.44539277862305 357.37303602527436,428.5069778767413 371.24585193523416,427.7799344024981 384.03337116208013,422.35195452890616 394.19323016337046,412.87773273717175 400.50000000000006,400.5"
     stroke="#000000"
     stroke-linecap="round"
     stroke-width="1"
     id="polyline70"
     transform="matrix(0.83711024,0,0,0.80979438,116.82996,-19.013909)" />
  <polyline
     clip-path="url(#border_clip)"
     fill="none"
     points="400.5,400.5 400.5000000000002,387.30273849731395 395.98627072934545,374.90136924865783 387.5032345536259,364.791680410137 376.0740708319135,358.19304965879377 363.07730538553875,355.90136924865817 350.08053993916394,358.1930496587933 338.6513762174513,364.7916804101361 330.16834004173137,374.90136924865664 325.65461077107614,387.3027384973126 325.65461077107585,400.49999999999864 330.16834004173063,412.90136924865476 338.6513762174502,423.01105808717557 350.08053993916263,429.6096888385188 363.07730538553733,431.9013692486545 376.0740708319122,429.60968883851933 387.5032345536248,423.01105808717654 395.98627072934477,412.901369248656 400.5,400.50000000000006"
     stroke="#000000"
     stroke-linecap="round"
     stroke-width="1"
     id="polyline71"
     transform="matrix(0.83711024,0,0,0.80979438,116.82996,-19.013909)" />
  <plotdata
     application="axidraw"
     model="1"
     plob_version="n/a"
     layer="-2"
     pause_dist="-25400"
     pause_ref="-25400"
     last_x="1.1059556048742536e-13"
     last_y="-7.049916206369744e-16"
     rand_seed="1"
     row="0" />
</svg>
