<?xml version="1.0" encoding="UTF-8" standalone="no"?>
<!DOCTYPE svg PUBLIC "-//W3C//DTD SVG 1.1//EN"
 "http://www.w3.org/Graphics/SVG/1.1/DTD/svg11.dtd">
<svg width="640pt" height="202pt"
 viewBox="0.00 0.00 640.00 202.48" xmlns="http://www.w3.org/2000/svg" xmlns:xlink="http://www.w3.org/1999/xlink">
<g id="graph0" class="graph" transform="scale(1 1) rotate(0) translate(4 198.48)">
<text text-anchor="middle" x="316" y="-7.8" font-family="Times,serif" font-size="14.00">Fig. 2: OODA Loop (for receiving an email)</text>
<g id="clust1" class="cluster">
<polygon fill="transparent" stroke="transparent" points="8,-31 8,-184.48 624,-184.48 624,-31 8,-31"/>
</g>
<g id="node1" class="node">
</g>
<g id="node2" class="node">
</g>
<g id="edge1" class="edge">
<path fill="none" stroke="white" d="M66.34,-134.69C63.65,-122.27 59.94,-105.14 56.84,-90.84"/>
<polygon fill="white" stroke="white" points="60.25,-90.07 54.72,-81.03 53.41,-91.55 60.25,-90.07"/>
</g>
<g id="node3" class="node">
<ellipse fill="none" stroke="red" cx="232" cy="-152.61" rx="88.28" ry="26.74"/>
<text text-anchor="middle" x="232" y="-156.41" font-family="Times,serif" font-size="14.00">I have received</text>
<text text-anchor="middle" x="232" y="-141.41" font-family="Times,serif" font-size="14.00"> an email.</text>
<text text-anchor="middle" x="113.61" y="-183.28" font-family="Times,serif" font-size="14.00">Observe</text>
</g>
<g id="node4" class="node">
<ellipse fill="none" stroke="blue" cx="232" cy="-62.87" rx="125.32" ry="26.74"/>
<text text-anchor="middle" x="232" y="-66.67" font-family="Times,serif" font-size="14.00">I do not wish to</text>
<text text-anchor="middle" x="232" y="-51.67" font-family="Times,serif" font-size="14.00"> respond to this email.</text>
<text text-anchor="middle" x="83.84" y="-93.54" font-family="Times,serif" font-size="14.00">Orient</text>
</g>
<g id="edge2" class="edge">
<path fill="none" stroke="black" d="M232,-125.29C232,-117.32 232,-108.43 232,-99.94"/>
<polygon fill="black" stroke="black" points="235.5,-99.87 232,-89.87 228.5,-99.87 235.5,-99.87"/>
</g>
<g id="node5" class="node">
<ellipse fill="none" stroke="green" cx="450" cy="-152.61" rx="64.99" ry="18"/>
<text text-anchor="middle" x="450" y="-148.91" font-family="Times,serif" font-size="14.00">Do nothing.</text>
<text text-anchor="middle" x="373.01" y="-174.41" font-family="Times,serif" font-size="14.00">Act</text>
</g>
<g id="node6" class="node">
<ellipse fill="none" stroke="yellow" cx="497" cy="-62.87" rx="122.16" ry="26.74"/>
<text text-anchor="middle" x="497" y="-66.67" font-family="Times,serif" font-size="14.00">I will not </text>
<text text-anchor="middle" x="497" y="-51.67" font-family="Times,serif" font-size="14.00">respond to this email.</text>
<text text-anchor="middle" x="350.17" y="-93.54" font-family="Times,serif" font-size="14.00">Decide</text>
</g>
<g id="edge3" class="edge">
<path fill="none" stroke="black" d="M323.87,-44.61C348.04,-42.36 372.21,-42.12 396.39,-43.88"/>
<polygon fill="black" stroke="black" points="396.12,-47.37 406.38,-44.73 396.71,-40.4 396.12,-47.37"/>
</g>
<g id="edge5" class="edge">
<path fill="none" stroke="black" d="M405.21,-139.45C373.6,-132.57 342,-130.76 310.39,-134.05"/>
<polygon fill="black" stroke="black" points="309.63,-130.61 300.12,-135.29 310.47,-137.56 309.63,-130.61"/>
</g>
<g id="edge4" class="edge">
<path fill="none" stroke="black" d="M483.15,-89.72C477.08,-101.06 469.96,-114.35 463.88,-125.7"/>
<polygon fill="black" stroke="black" points="460.7,-124.23 459.06,-134.69 466.87,-127.53 460.7,-124.23"/>
</g>
</g>
</svg>
