<?xml version="1.0" encoding="utf-8" ?>
<svg baseProfile="full" height="700px" version="1.1" width="700px" xmlns="http://www.w3.org/2000/svg" xmlns:ev="http://www.w3.org/2001/xml-events" xmlns:xlink="http://www.w3.org/1999/xlink"><defs /><polyline clip-path="url(#border_clip)" fill="none" points="350.5,338.9529946162075 360.5,356.2735026918963 340.5,356.2735026918963 350.5,338.9529946162075" stroke="black" stroke-linecap="round" stroke-width="1" /><polyline clip-path="url(#border_clip)" fill="none" points="349.0224127373606,338.46601745550186 361.66052822355357,355.237363166495 340.81705903908585,357.79661937800313 349.0224127373606,338.46601745550186" stroke="black" stroke-linecap="round" stroke-width="1" /><polyline clip-path="url(#border_clip)" fill="none" points="347.4271792259587,338.17558902730224 362.7096633760566,354.00106463475254 341.3631573979847,359.3233463379452 347.42717922595864,338.17558902730224" stroke="black" stroke-linecap="round" stroke-width="1" /><polyline clip-path="url(#border_clip)" fill="none" points="345.741211860805,338.10293305738855 363.6155689743153,352.5773020515348 342.14321916487967,360.8197648910767 345.741211860805,338.10293305738855" stroke="black" stroke-linecap="round" stroke-width="1" /><polyline clip-path="url(#border_clip)" fill="none" points="343.9948112043686,338.2655192699816 364.3479655121228,350.98358161157853 343.1572232835086,362.2508991184399 343.9948112043686,338.2655192699816" stroke="black" stroke-linecap="round" stroke-width="1" /><polyline clip-path="url(#border_clip)" fill="none" points="342.2211372517974,338.67655866806297 364.8788319277137,349.24201521158045 344.4000308204889,363.5814261203566 342.2211372517974,338.67655866806297" stroke="black" stroke-linecap="round" stroke-width="1" /><polyline clip-path="url(#border_clip)" fill="none" points="340.45560887168807,339.3445735090575 365.18307829536207,347.37901536280606 345.86131283294986,364.77641112813643 340.45560887168807,339.3445735090575" stroke="black" stroke-linecap="round" stroke-width="1" /><polyline clip-path="url(#border_clip)" fill="none" points="338.299510179555,339.89427600422533 365.78507131608956,345.2369278747685 347.41541850435544,366.36879612100614 338.299510179555,339.89427600422533" stroke="black" stroke-linecap="round" stroke-width="1" /><polyline clip-path="url(#border_clip)" fill="none" points="336.61929309519394,341.1373449729149 365.5486505527288,343.16028271149446 349.33205635207725,367.20237231559065 336.61929309519394,341.1373449729149" stroke="black" stroke-linecap="round" stroke-width="1" /><polyline clip-path="url(#border_clip)" fill="none" points="334.5528914457141,342.3745423457411 365.51040702310587,340.75212770220975 351.43670153118,368.3733299520492 334.5528914457141,342.37454234574113" stroke="black" stroke-linecap="round" stroke-width="1" /><polyline clip-path="url(#border_clip)" fill="none" points="333.13898279788003,344.1811065018449 364.65283089427066,338.62436481650303 353.70818630784936,368.6945286816521 333.13898279788003,344.1811065018449" stroke="black" stroke-linecap="round" stroke-width="1" /><polyline clip-path="url(#border_clip)" fill="none" points="331.3732041474017,346.0842312394828 363.8875658501448,336.14359327890963 356.23923000245355,369.27217548160763 331.3732041474017,346.0842312394828" stroke="black" stroke-linecap="round" stroke-width="1" /><polyline clip-path="url(#border_clip)" fill="none" points="330.4034380597953,348.3877662258056 362.3775290772862,334.15198371815245 358.7190328629185,368.960250056042 330.4034380597953,348.3877662258056" stroke="black" stroke-linecap="round" stroke-width="1" /><polyline clip-path="url(#border_clip)" fill="none" points="329.14129356995477,350.87281760751927 360.8564836959328,331.81640883584714 361.5022227341125,368.8107735566336 329.14129356995477,350.87281760751927" stroke="black" stroke-linecap="round" stroke-width="1" /><polyline clip-path="url(#border_clip)" fill="none" points="328.2024700937444,353.6337134648268 358.9348894844064,329.62291592712603 364.36264042184916,368.2433706080472 328.2024700937444,353.6337134648268" stroke="black" stroke-linecap="round" stroke-width="1" /><polyline clip-path="url(#border_clip)" fill="none" points="327.6352210311667,356.62659905981513 356.6265990598149,327.63522103116657 367.23817990901847,367.23817990901824 327.6352210311667,356.62659905981513" stroke="black" stroke-linecap="round" stroke-width="1" /><polyline clip-path="url(#border_clip)" fill="none" points="327.4816765350365,359.8000063546022 353.9551199740396,325.91554394951305 370.06320349092397,365.78444969588475 327.4816765350365,359.8000063546022" stroke="black" stroke-linecap="round" stroke-width="1" /><polyline clip-path="url(#border_clip)" fill="none" points="327.77671344900347,363.09572341397256 350.9534268199556,324.5231948823774 372.769859731041,363.88108170365 327.77671344900347,363.09572341397256" stroke="black" stroke-linecap="round" stroke-width="1" /><polyline clip-path="url(#border_clip)" fill="none" points="328.07986338489496,366.7891827345642 347.6032222525331,322.93900076771934 375.81691436257194,361.77181649771654 328.07986338489496,366.7891827345642" stroke="black" stroke-linecap="round" stroke-width="1" /><polyline clip-path="url(#border_clip)" fill="none" points="329.38763717486734,370.1875968384484 344.0062224110038,322.37235904029666 378.1061404141289,358.9400441212549 329.38763717486734,370.1875968384484" stroke="black" stroke-linecap="round" stroke-width="1" /><polyline clip-path="url(#border_clip)" fill="none" points="330.8309792273334,373.9406261686359 340.03433264368033,321.74581525898896 380.6346881289863,355.81355857237514 330.83097922733344,373.9406261686359" stroke="black" stroke-linecap="round" stroke-width="1" /><polyline clip-path="url(#border_clip)" fill="none" points="333.20538785875954,377.1313672990589 336.083865452121,322.2067428875575 382.21074668911945,352.16188981338354 333.20538785875954,377.1313672990589" stroke="black" stroke-linecap="round" stroke-width="1" /><polyline clip-path="url(#border_clip)" fill="none" points="335.8205654229892,380.59730110545775 331.77468994582955,322.7385861903881 383.90474463118125,348.16411270415415 335.82056542298926,380.59730110545775" stroke="black" stroke-linecap="round" stroke-width="1" /><polyline clip-path="url(#border_clip)" fill="none" points="339.03402144146037,383.7996196529095 327.39467272349066,323.9203614626022 385.071305835049,343.78001888448824 339.03402144146037,383.7996196529095" stroke="black" stroke-linecap="round" stroke-width="1" /><polyline clip-path="url(#border_clip)" fill="none" points="342.8175762776769,386.6429619578143 323.0404886376798,325.7753449149248 385.6419350846433,339.08169312726085 342.81757627767695,386.6429619578143" stroke="black" stroke-linecap="round" stroke-width="1" /><polyline clip-path="url(#border_clip)" fill="none" points="347.12860076703595,389.0352695662726 318.81317723040866,328.3126478348174 385.5582220025554,334.15208259890994 347.12860076703595,389.0352695662725" stroke="black" stroke-linecap="round" stroke-width="1" /><polyline clip-path="url(#border_clip)" fill="none" points="351.9305956009201,391.4668979733632 314.3063278403622,331.25548314625746 385.2630765587177,328.7776188803793 351.9305956009202,391.4668979733632" stroke="black" stroke-linecap="round" stroke-width="1" /><polyline clip-path="url(#border_clip)" fill="none" points="357.1834935571123,392.69791756953606 310.61378461942394,335.1891164217208 383.7027218234638,323.6129660087431 357.1834935571123,392.697917569536" stroke="black" stroke-linecap="round" stroke-width="1" /><polyline clip-path="url(#border_clip)" fill="none" points="362.91286552321395,393.78880651510957 306.80436109679886,339.6054536193085 381.7827733799872,318.10573986558194 362.91286552321395,393.7888065151095" stroke="black" stroke-linecap="round" stroke-width="1" /><polyline clip-path="url(#border_clip)" fill="none" points="368.9982752215523,394.07920544435177 303.5101633976741,344.7303735458847 378.9915613807736,312.69042100976355 368.9982752215524,394.0792054443517" stroke="black" stroke-linecap="round" stroke-width="1" /><polyline clip-path="url(#border_clip)" fill="none" points="375.32606157515426,393.49999999999955 300.8478768496924,350.5000000000005 375.32606157515335,307.4999999999999 375.32606157515426,393.49999999999955" stroke="black" stroke-linecap="round" stroke-width="1" /><polyline clip-path="url(#border_clip)" fill="none" points="381.77122590572793,391.9983184039173 298.9257890950083,356.83251683988374 370.80298499926374,302.6691647561989 381.77122590572793,391.9983184039173" stroke="black" stroke-linecap="round" stroke-width="1" /><polyline clip-path="url(#border_clip)" fill="none" points="388.6008137320365,389.9545475996109 297.28095261789633,363.76899879699715 365.6182336500671,297.77645360339193 388.6008137320365,389.95454759961086" stroke="black" stroke-linecap="round" stroke-width="1" /><polyline clip-path="url(#border_clip)" fill="none" points="395.36854300468144,386.8338297179137 296.599708945168,371.19038321389183 359.5317480501505,293.4757870681944 395.3685430046815,386.83382971791366" stroke="black" stroke-linecap="round" stroke-width="1" /><polyline clip-path="url(#border_clip)" fill="none" points="401.91018364317466,382.6246481346492 296.9741468061701,378.96020098088786 352.61566955065524,289.9151508844629 401.91018364317466,382.6246481346492" stroke="black" stroke-linecap="round" stroke-width="1" /><polyline clip-path="url(#border_clip)" fill="none" points="408.05827492956905,377.33986438984806 298.4768581394777,386.92699609209177 344.9648669309532,287.23313951806017 408.05827492956905,377.339864389848" stroke="black" stroke-linecap="round" stroke-width="1" /><polyline clip-path="url(#border_clip)" fill="none" points="413.6456646052187,371.0172701619518 301.1586905208319,394.92711460599537 336.6956448739493,285.5556152320528 413.6456646052187,371.0172701619517" stroke="black" stroke-linecap="round" stroke-width="1" /><polyline clip-path="url(#border_clip)" fill="none" points="419.07586895149075,363.8297986061775 304.6681213039745,403.2235452954948 327.7560097445347,284.4466560983277 419.07586895149075,363.82979860617746" stroke="black" stroke-linecap="round" stroke-width="1" /><polyline clip-path="url(#border_clip)" fill="none" points="423.64487186482785,355.614787699523 309.49802798483495,411.28792334173704 318.35710015033715,284.5972889587399 423.64487186482785,355.61478769952294" stroke="black" stroke-linecap="round" stroke-width="1" /><polyline clip-path="url(#border_clip)" fill="none" points="427.7589101153089,346.4510320910275 315.3770540106236,419.43266278304225 308.3640358740674,285.6163051259302 427.75891011530894,346.45103209102746" stroke="black" stroke-linecap="round" stroke-width="1" /><polyline clip-path="url(#border_clip)" fill="none" points="430.1010629822274,336.46418490315835 322.8548409455723,426.45445025927484 298.5440960722002,288.5813648375668 430.1010629822274,336.4641849031583" stroke="black" stroke-linecap="round" stroke-width="1" /><polyline clip-path="url(#border_clip)" fill="none" points="431.66205281753815,325.686270283509 331.40829388835294,433.1952644215279 288.42965329410885,292.6184652949631 431.6620528175381,325.686270283509" stroke="black" stroke-linecap="round" stroke-width="1" /><polyline clip-path="url(#border_clip)" fill="none" points="432.2525359624709,314.1014258927888 341.14582185713994,439.4990600209063 278.10164218038915,297.89951408630486 432.25253596247086,314.10142589278877" stroke="black" stroke-linecap="round" stroke-width="1" /><polyline clip-path="url(#border_clip)" fill="none" points="430.67149503174613,302.3281058668584 352.1323365518421,444.01649842344085 268.69616841641175,305.15539570970077 430.6714950317461,302.3281058668583" stroke="black" stroke-linecap="round" stroke-width="1" /><polyline clip-path="url(#border_clip)" fill="none" points="428.29785574297506,289.7176535349686 364.24012826885695,448.26609266588923 258.96201598816793,313.51625379914225 428.29785574297506,289.7176535349685" stroke="black" stroke-linecap="round" stroke-width="1" /><polyline clip-path="url(#border_clip)" fill="none" points="423.57644399302984,277.42355600696783 377.2478349196816,450.3242789127107 250.67572108728842,323.7521650803215 423.5764439930298,277.4235560069678" stroke="black" stroke-linecap="round" stroke-width="1" /><polyline clip-path="url(#border_clip)" fill="none" points="417.32503587968097,264.96785450479723 391.1604928991918,451.1382514282117 243.01447122112717,335.39389406699115 417.3250358796809,264.96785450479723" stroke="black" stroke-linecap="round" stroke-width="1" /><polyline clip-path="url(#border_clip)" fill="none" points="409.3767594960588,252.5126171834196 405.92118302148,450.48246082438385 236.20205748246113,348.5049219921966 409.37675949605875,252.5126171834196" stroke="black" stroke-linecap="round" stroke-width="1" /><polyline clip-path="url(#border_clip)" fill="none" points="399.3445381567702,240.7933710955215 421.0864585164454,447.6539253321206 231.06900332678427,363.052703572358 399.3445381567701,240.79337109552148" stroke="black" stroke-linecap="round" stroke-width="1" /><polyline clip-path="url(#border_clip)" fill="none" points="387.29859236866986,230.1372277943982 436.3379222156358,442.54990191757724 227.8634854156943,378.81287028802467 387.2985923686698,230.1372277943982" stroke="black" stroke-linecap="round" stroke-width="1" /><polyline clip-path="url(#border_clip)" fill="none" points="373.458583265544,220.29540412192748 451.7811960871254,435.48501428189775 226.26022064733053,395.7195815961749 373.4585832655439,220.29540412192748" stroke="black" stroke-linecap="round" stroke-width="1" /><polyline clip-path="url(#border_clip)" fill="none" points="357.7518828220359,212.12583262929746 466.7096027595302,425.96739843450234 227.0385144184339,413.40676893620025 357.7518828220358,212.12583262929746" stroke="black" stroke-linecap="round" stroke-width="1" /><polyline clip-path="url(#border_clip)" fill="none" points="340.3509724387372,205.36214401624767 481.26758411336823,414.2796123001142 229.8814434478946,431.85824368363825 340.35097243873713,205.36214401624773" stroke="black" stroke-linecap="round" stroke-width="1" /><polyline clip-path="url(#border_clip)" fill="none" points="321.3066394162181,200.31317956905045 495.16228209870496,400.3112183280804 235.03107848507685,450.87560210286927 321.306639416218,200.31317956905048" stroke="black" stroke-linecap="round" stroke-width="1" /><polyline clip-path="url(#border_clip)" fill="none" points="300.90172952153796,197.8522194760819 507.49599100425553,383.8705280438393 243.10227947420643,469.777252480079 300.90172952153785,197.85221947608193" stroke="black" stroke-linecap="round" stroke-width="1" /><polyline clip-path="url(#border_clip)" fill="none" points="279.2523599833078,197.70894291423747 518.4447569156948,365.1932623287371 253.8028831009974,488.5977947570255 279.2523599833077,197.70894291423753" stroke="black" stroke-linecap="round" stroke-width="1" /><polyline clip-path="url(#border_clip)" fill="none" points="256.57364783487833,200.1864154432927 527.6385588425696,344.3141852185548 267.28779332255203,506.99939933815256 256.5736478348783,200.18641544329282" stroke="black" stroke-linecap="round" stroke-width="1" /><polyline clip-path="url(#border_clip)" fill="none" points="233.50506830831364,206.0232915249298 534.1179656404124,321.41777127850963 283.8769660512739,524.0589371965607 233.50506830831358,206.0232915249299" stroke="black" stroke-linecap="round" stroke-width="1" /><polyline clip-path="url(#border_clip)" fill="none" points="210.12487275085428,214.9413153533908 538.08482823214,296.71091606607126 303.2902990170058,539.8477685805381 210.12487275085422,214.9413153533909" stroke="black" stroke-linecap="round" stroke-width="1" /><polyline clip-path="url(#border_clip)" fill="none" points="186.81218851787835,227.15238670518983 539.1660723505456,270.41600361400964 325.5217391315761,553.9316096808006 186.8121885178783,227.15238670518994" stroke="black" stroke-linecap="round" stroke-width="1" /><polyline clip-path="url(#border_clip)" fill="none" points="163.99999999999932,242.82417479613957 536.9999999999961,242.82417479613184 350.50000000000455,565.8516504077286 163.9999999999993,242.8241747961397" stroke="black" stroke-linecap="round" stroke-width="1" /><polyline clip-path="url(#border_clip)" fill="none" points="142.17013982699953,262.06922089209814 531.2482312703935,214.29643827727259 378.0816289026071,575.1343408306294 142.1701398269995,262.0692208920982" stroke="black" stroke-linecap="round" stroke-width="1" /><polyline clip-path="url(#border_clip)" fill="none" points="122.40128874730644,285.09374705076465 521.1928322467355,185.66384795929366 407.90587900595824,580.7424049899417 122.40128874730644,285.0937470507648" stroke="black" stroke-linecap="round" stroke-width="1" /><polyline clip-path="url(#border_clip)" fill="none" points="104.15540013460048,311.48284842335227 507.46214438138486,156.66789421977526 439.88245548401494,583.3492573568726 104.15540013460048,311.4828484233525" stroke="black" stroke-linecap="round" stroke-width="1" /><polyline clip-path="url(#border_clip)" fill="none" points="88.54265239567866,341.3522478476456 489.4008595536234,128.2121583428443 473.556488050698,581.9355938095101 88.54265239567866,341.35224784764574" stroke="black" stroke-linecap="round" stroke-width="1" /><polyline clip-path="url(#border_clip)" fill="none" points="76.72704009633446,374.45203037151424 466.6434131778851,101.42964666841007 508.12954672578064,575.6183229600758 76.72704009633446,374.4520303715144" stroke="black" stroke-linecap="round" stroke-width="1" /><polyline clip-path="url(#border_clip)" fill="none" points="68.13310970457928,410.51893533065765 439.7055224432656,75.95363215122313 543.6613678521554,565.0274325181192 68.1331097045794,410.51893533065777" stroke="black" stroke-linecap="round" stroke-width="1" /><polyline clip-path="url(#border_clip)" fill="none" points="63.90491282332488,449.18260234809543 408.3359030433291,52.960072731135824 579.2591841333463,549.3573249207686 63.90491282332505,449.18260234809554" stroke="black" stroke-linecap="round" stroke-width="1" /><polyline clip-path="url(#border_clip)" fill="none" points="64.57563949815773,489.9546284816103 372.69092931052586,33.15492600377945 614.2334311913169,528.3904455146103 64.57563949815784,489.95462848161054" stroke="black" stroke-linecap="round" stroke-width="1" /><polyline clip-path="url(#border_clip)" fill="none" points="70.14433334264163,532.565098723248 333.0048326918247,16.672321218181708 648.3508339655339,502.26258005857017 70.14433334264186,532.5650987232482" stroke="black" stroke-linecap="round" stroke-width="1" /><polyline clip-path="url(#border_clip)" fill="none" points="81.59621300886499,576.1370684864462 289.544460150856,4.803955048614512 680.3593268402792,470.55897646493924 81.59621300886528,576.1370684864463" stroke="black" stroke-linecap="round" stroke-width="1" /><polyline clip-path="url(#border_clip)" fill="none" points="99.28626434140818,619.8937496486988 242.80503701277772,-1.7543516842785607 709.4086986458143,433.3606020355798 99.28626434140835,619.8937496486988" stroke="black" stroke-linecap="round" stroke-width="1" /><polyline clip-path="url(#border_clip)" fill="none" points="123.13015766338651,663.4477402525121 193.16422805269747,-2.881929644226034 735.2056142839164,390.93418939171363 123.13015766338685,663.4477402525122" stroke="black" stroke-linecap="round" stroke-width="1" /><polyline clip-path="url(#border_clip)" fill="none" points="153.44690481253102,705.9931940422604 141.1604106806662,2.1004166521684056 756.8926845068031,343.4063893055709 153.44690481253127,705.9931940422605" stroke="black" stroke-linecap="round" stroke-width="1" /><polyline clip-path="url(#border_clip)" fill="none" points="190.6696582313852,746.0939776885606 87.82073662187958,14.285874888550211 773.0096051467353,291.12014742288903 190.66965823138554,746.0939776885606" stroke="black" stroke-linecap="round" stroke-width="1" /><polyline clip-path="url(#border_clip)" fill="none" points="234.54290559961066,783.2577678003577 33.69932660003764,33.69932660005361 783.257767800352,234.54290559958844 234.54290559961095,783.2577678003577" stroke="black" stroke-linecap="round" stroke-width="1" /><polyline clip-path="url(#border_clip)" fill="none" points="285.013423747865,816.4612018871334 -20.290949886119506,60.80636041521757 786.7775261382546,174.23243769764875 285.0134237478653,816.4612018871334" stroke="black" stroke-linecap="round" stroke-width="1" /><polyline clip-path="url(#border_clip)" fill="none" points="341.874814269299,844.6365595707717 -73.12222066158046,95.96209025946791 782.7474063922814,110.90135016975998 341.87481426929935,844.6365595707717" stroke="black" stroke-linecap="round" stroke-width="1" /><polyline clip-path="url(#border_clip)" fill="none" points="404.75423322860934,866.6945481212515 -123.66470858233743,139.38827017819563 770.410475353728,45.41718170055242 404.75423322860956,866.6945481212513" stroke="black" stroke-linecap="round" stroke-width="1" /><polyline clip-path="url(#border_clip)" fill="none" points="473.1025208802579,881.5498613191917 -170.70393101875197,191.15196699071953 749.1014101384942,-21.201828309911377 473.1025208802583,881.5498613191915" stroke="black" stroke-linecap="round" stroke-width="1" /><polyline clip-path="url(#border_clip)" fill="none" points="546.1882330210054,888.1490014781415 -212.96181010991052,251.14648027880855 718.273577088905,-87.79548175695072 546.1882330210058,888.1490014781411" stroke="black" stroke-linecap="round" stroke-width="1" /></svg>