<?xml version="1.0" encoding="utf-8" ?>
<svg baseProfile="full" height="700px" version="1.1" width="700px" xmlns="http://www.w3.org/2000/svg" xmlns:ev="http://www.w3.org/2001/xml-events" xmlns:xlink="http://www.w3.org/1999/xlink"><defs /><polyline clip-path="url(#border_clip)" fill="none" points="350.5,338.9529946162075 360.5,356.2735026918963 340.5,356.2735026918963 350.5,338.9529946162075" stroke="black" stroke-linecap="round" stroke-width="1" /><polyline clip-path="url(#border_clip)" fill="none" points="344.80795980382254,339.7948293612339 362.61696982310747,350.9231339101312 344.07507037307,360.7820367286349 344.80795980382254,339.7948293612339" stroke="black" stroke-linecap="round" stroke-width="1" /><polyline clip-path="url(#border_clip)" fill="none" points="343.21460078158174,340.0953716278954 363.153372096388,349.39297338619076 345.13202712203025,362.0116549859138 343.21460078158174,340.0953716278954" stroke="black" stroke-linecap="round" stroke-width="1" /><polyline clip-path="url(#border_clip)" fill="none" points="341.614577078801,340.63173810416623 363.4888769535895,347.73912897479 346.3965459676095,363.1291329210438 341.614577078801,340.63173810416623" stroke="black" stroke-linecap="round" stroke-width="1" /><polyline clip-path="url(#border_clip)" fill="none" points="338.1538514418432,344.20932310638017 362.12096027595294,342.9532601565495 351.2251882822039,364.3374167370703 338.1538514418432,344.20932310638017" stroke="black" stroke-linecap="round" stroke-width="1" /><polyline clip-path="url(#border_clip)" fill="none" points="336.2067115985541,352.50879068258126 355.9069804387221,337.11725379943977 359.3863079627238,361.87395551797897 336.20671159855414,352.50879068258126" stroke="black" stroke-linecap="round" stroke-width="1" /><polyline clip-path="url(#border_clip)" fill="none" points="343.9195638103054,363.9918935989983 342.1058954929581,338.0552282922429 365.4745406967365,349.4528781087588 343.9195638103054,363.9918935989983" stroke="black" stroke-linecap="round" stroke-width="1" /><polyline clip-path="url(#border_clip)" fill="none" points="358.5829037686548,364.49999999999994 334.3341924626905,350.50000000000006 358.5829037686547,336.5 358.58290376865483,364.49999999999994" stroke="black" stroke-linecap="round" stroke-width="1" /><polyline clip-path="url(#border_clip)" fill="none" points="367.2202118906266,349.6237308256703 342.89876542020943,365.4182628411061 341.38102268916396,336.4580063332236 367.2202118906266,349.6237308256703" stroke="black" stroke-linecap="round" stroke-width="1" /><polyline clip-path="url(#border_clip)" fill="none" points="359.71807850695893,335.1585410741718 359.1770539074033,366.1538196240199 332.60486758563775,350.18763930180836 359.71807850695893,335.1585410741718" stroke="black" stroke-linecap="round" stroke-width="1" /><polyline clip-path="url(#border_clip)" fill="none" points="342.6920394502257,333.7557745659436 368.9049048674735,352.11022052917696 339.9030556823008,365.6340049048795 342.6920394502257,333.7557745659436" stroke="black" stroke-linecap="round" stroke-width="1" /><polyline clip-path="url(#border_clip)" fill="none" points="336.37942506961264,336.8639192959029 369.36947976299655,345.0892637462914 345.7510951673908,369.5468169578057 336.37942506961264,336.863919295903" stroke="black" stroke-linecap="round" stroke-width="1" /><polyline clip-path="url(#border_clip)" fill="none" points="331.89911962741064,342.60439472250846 366.6382349348568,338.3389677033281 352.9626454377325,370.5566375741635 331.89911962741064,342.60439472250846" stroke="black" stroke-linecap="round" stroke-width="1" /><polyline clip-path="url(#border_clip)" fill="none" points="329.1510531688107,349.75447834881663 361.8201141045908,332.38403052573847 360.5288327265985,369.36149112544496 329.1510531688107,349.75447834881663" stroke="black" stroke-linecap="round" stroke-width="1" /><polyline clip-path="url(#border_clip)" fill="none" points="333.25123734760774,364.973430379887 346.5900229373085,328.32541816923657 371.65873971508375,358.2011514508764 333.25123734760774,364.973430379887" stroke="black" stroke-linecap="round" stroke-width="1" /><polyline clip-path="url(#border_clip)" fill="none" points="344.37340094018515,373.36477896883343 333.76182009098153,333.7618200909818 373.3647789688333,344.3734009401848 344.3734009401852,373.36477896883343" stroke="black" stroke-linecap="round" stroke-width="1" /><polyline clip-path="url(#border_clip)" fill="none" points="347.04488002596054,375.08445605048695 330.93679650907603,335.2155503041153 373.5183234649635,341.19999364539774 347.04488002596054,375.08445605048695" stroke="black" stroke-linecap="round" stroke-width="1" /><polyline clip-path="url(#border_clip)" fill="none" points="353.2157291382503,376.3384367802631 326.7653927850888,339.9326720333908 371.51887807666094,335.228891186346 353.2157291382503,376.3384367802631" stroke="black" stroke-linecap="round" stroke-width="1" /><polyline clip-path="url(#border_clip)" fill="none" points="376.3721397063196,360.43138394266754 328.9630993577532,367.9402382645991 346.1647609359271,323.1283777927334 376.3721397063196,360.43138394266754" stroke="black" stroke-linecap="round" stroke-width="1" /><polyline clip-path="url(#border_clip)" fill="none" points="379.3675134594812,350.4999999999997 336.06624327025963,375.50000000000006 336.0662432702591,325.5000000000002 379.3675134594812,350.4999999999997" stroke="black" stroke-linecap="round" stroke-width="1" /><polyline clip-path="url(#border_clip)" fill="none" points="370.5751204205732,327.4062156970147 360.46224366561694,379.43245641974084 320.4626359138098,344.6613278832445 370.5751204205732,327.4062156970147" stroke="black" stroke-linecap="round" stroke-width="1" /><polyline clip-path="url(#border_clip)" fill="none" points="357.6431553478953,319.55959494432625 373.7235991076463,372.15635652229287 320.1332455444584,359.7840485333809 357.64315534789523,319.55959494432625" stroke="black" stroke-linecap="round" stroke-width="1" /><polyline clip-path="url(#border_clip)" fill="none" points="354.00027311152195,317.1971259276608 377.5909984099189,370.1827624709312 319.90872847855917,364.120111601408 354.00027311152195,317.1971259276608" stroke="black" stroke-linecap="round" stroke-width="1" /><polyline clip-path="url(#border_clip)" fill="none" points="333.4257971499482,319.69732267531595 385.7130024927772,351.1146452448285 332.3612003572746,380.6880320798556 333.42579714994815,319.69732267531595" stroke="black" stroke-linecap="round" stroke-width="1" /><polyline clip-path="url(#border_clip)" fill="none" points="315.56269413465236,338.4701208566143 378.38683387530244,326.2583451525147 357.55047199004525,386.77153399087103 315.56269413465236,338.4701208566143" stroke="black" stroke-linecap="round" stroke-width="1" /><polyline clip-path="url(#border_clip)" fill="none" points="311.8410962786573,351.84999866565715 368.6603187211372,316.34540796203186 370.9985850002056,383.304593372311 311.8410962786573,351.84999866565715" stroke="black" stroke-linecap="round" stroke-width="1" /><polyline clip-path="url(#border_clip)" fill="none" points="312.7667855298906,366.51679927719783 355.49565217368513,309.81367806383975 383.2375622964243,375.16952265896236 312.7667855298906,366.5167992771979" stroke="black" stroke-linecap="round" stroke-width="1" /><polyline clip-path="url(#border_clip)" fill="none" points="323.6129660087439,383.70272182346434 335.18911642172,310.61378461942434 392.6979175695362,357.1834935571113 323.6129660087439,383.70272182346434" stroke="black" stroke-linecap="round" stroke-width="1" /><polyline clip-path="url(#border_clip)" fill="none" points="331.46809615992595,391.3140494955127 324.6699482256076,313.61086304435696 395.3619556144664,346.57508746013036 331.468096159926,391.3140494955127" stroke="black" stroke-linecap="round" stroke-width="1" /><polyline clip-path="url(#border_clip)" fill="none" points="347.19753865070174,397.7273975820149 311.2511046139965,324.026285785484 393.0513567353018,329.7463166325011 347.19753865070174,397.7273975820149" stroke="black" stroke-linecap="round" stroke-width="1" /><polyline clip-path="url(#border_clip)" fill="none" points="389.6264069818481,381.06889939176904 304.46335307007325,369.10001270920475 357.4102399480786,301.33108789902616 389.6264069818481,381.06889939176904" stroke="black" stroke-linecap="round" stroke-width="1" /><polyline clip-path="url(#border_clip)" fill="none" points="401.50684467466226,340.58527376399877 333.582982454614,399.63058637314515 316.4101728707237,311.2841398628561 401.50684467466226,340.5852737639987" stroke="black" stroke-linecap="round" stroke-width="1" /><polyline clip-path="url(#border_clip)" fill="none" points="383.5085162338228,306.69621946253085 371.9309286103353,400.98810386845616 296.06055515584194,343.81567666901304 383.5085162338227,306.69621946253085" stroke="black" stroke-linecap="round" stroke-width="1" /><polyline clip-path="url(#border_clip)" fill="none" points="373.0588722214039,297.35462750688754 385.2458065619202,396.6092426710191 293.19532121667595,357.53612982209336 373.0588722214039,297.35462750688754" stroke="black" stroke-linecap="round" stroke-width="1" /><polyline clip-path="url(#border_clip)" fill="none" points="337.8960235805622,291.2029530379613 408.15473724824324,369.2331597130862 305.44923917119456,391.06388724895254 337.8960235805622,291.2029530379614" stroke="black" stroke-linecap="round" stroke-width="1" /><polyline clip-path="url(#border_clip)" fill="none" points="289.15547105922747,334.0627830102535 395.4073119510239,305.59268804897454 366.93721698974866,411.84452894077197 289.15547105922747,334.06278301025355" stroke="black" stroke-linecap="round" stroke-width="1" /><polyline clip-path="url(#border_clip)" fill="none" points="285.8064257926827,365.43568845469196 369.91210147888546,287.00587704750353 395.7814727284318,399.0584344978045 285.8064257926827,365.43568845469196" stroke="black" stroke-linecap="round" stroke-width="1" /><polyline clip-path="url(#border_clip)" fill="none" points="317.703006488693,412.1821736805097 313.48016738768825,291.25588361119986 420.31682612361885,348.0619427082904 317.70300648869306,412.1821736805097" stroke="black" stroke-linecap="round" stroke-width="1" /><polyline clip-path="url(#border_clip)" fill="none" points="384.92329071021715,415.2407938630131 277.22118249835046,347.9410473053984 389.3555267914324,288.3181588315885 384.9232907102172,415.24079386301304" stroke="black" stroke-linecap="round" stroke-width="1" /><polyline clip-path="url(#border_clip)" fill="none" points="423.19925953387747,376.96036652352325 291.23502063024273,400.2292223308943 337.0657198358797,274.3104111455824 423.19925953387747,376.96036652352325" stroke="black" stroke-linecap="round" stroke-width="1" /><polyline clip-path="url(#border_clip)" fill="none" points="421.1946692697663,311.31330493430687 349.0893387823614,431.31672703260324 281.2159919478723,308.8699680330899 421.1946692697663,311.31330493430687" stroke="black" stroke-linecap="round" stroke-width="1" /><polyline clip-path="url(#border_clip)" fill="none" points="347.53806262907995,265.6812112382483 425.436194471363,390.3442813732406 278.525742899557,395.47450738851114 347.53806262907995,265.6812112382483" stroke="black" stroke-linecap="round" stroke-width="1" /><polyline clip-path="url(#border_clip)" fill="none" points="274.60877652674185,303.07790037266136 429.51435471470086,308.48732236154586 347.3768687585573,439.9347772657928 274.60877652674185,303.0779003726615" stroke="black" stroke-linecap="round" stroke-width="1" /><polyline clip-path="url(#border_clip)" fill="none" points="257.0974370247759,355.39502090487787 392.96206903193195,267.1634972324412 401.44049394329215,428.941481862681 257.0974370247759,355.3950209048779" stroke="black" stroke-linecap="round" stroke-width="1" /><polyline clip-path="url(#border_clip)" fill="none" points="265.8745330220461,401.3481104738722 348.77697808416605,251.78814055303468 436.8484888937879,398.3637489730931 265.87453302204614,401.3481104738722" stroke="black" stroke-linecap="round" stroke-width="1" /><polyline clip-path="url(#border_clip)" fill="none" points="286.87403498689997,431.93752150873064 311.7860200587477,254.67953720399015 452.8399449543524,364.88294128727915 286.8740349869,431.9375215087307" stroke="black" stroke-linecap="round" stroke-width="1" /><polyline clip-path="url(#border_clip)" fill="none" points="344.8193584560724,458.89309777371705 259.46914450503436,291.38387122630684 447.21149703889324,301.223030999976 344.81935845607245,458.893097773717" stroke="black" stroke-linecap="round" stroke-width="1" /><polyline clip-path="url(#border_clip)" fill="none" points="385.8253868875382,459.22036166811426 238.68271144301204,326.73250160906457 426.99190166944976,265.54713672282105 385.82538688753823,459.2203616681142" stroke="black" stroke-linecap="round" stroke-width="1" /><polyline clip-path="url(#border_clip)" fill="none" points="426.0743658132637,443.8265694497346 231.88963710184527,369.28603594431723 393.535997084891,238.3873946059481 426.0743658132637,443.82656944973456" stroke="black" stroke-linecap="round" stroke-width="1" /><polyline clip-path="url(#border_clip)" fill="none" points="441.0378039654258,437.9313409850909 229.51333563725876,385.19236774436877 380.94886039731534,228.37629127054026 441.03780396542584,437.93134098509086" stroke="black" stroke-linecap="round" stroke-width="1" /><polyline clip-path="url(#border_clip)" fill="none" points="477.5914960507712,386.94290006173907 255.39377473357087,442.343014154068 318.51472921565784,222.21408578419295 477.5914960507712,386.94290006173895" stroke="black" stroke-linecap="round" stroke-width="1" /><polyline clip-path="url(#border_clip)" fill="none" points="487.35811103633336,372.17619532035945 263.29880867700865,458.1845032112364 300.8430802866579,221.1393014684041 487.35811103633336,372.17619532035934" stroke="black" stroke-linecap="round" stroke-width="1" /><polyline clip-path="url(#border_clip)" fill="none" points="495.4386258313525,337.8195133327273 289.0123106705317,482.3607752931951 267.04906349811563,231.31971137407757 495.4386258313525,337.8195133327272" stroke="black" stroke-linecap="round" stroke-width="1" /><polyline clip-path="url(#border_clip)" fill="none" points="440.4298630137353,226.72216243743878 412.7298202478141,490.27046471003 198.34031673845055,334.50737285253126 440.42986301373526,226.72216243743878" stroke="black" stroke-linecap="round" stroke-width="1" /><polyline clip-path="url(#border_clip)" fill="none" points="353.30117013216693,190.02107060668806 488.07824456065396,433.16534919143476 210.12058530717908,428.3135802018773 353.3011701321668,190.02107060668806" stroke="black" stroke-linecap="round" stroke-width="1" /><polyline clip-path="url(#border_clip)" fill="none" points="239.89744975834697,223.26632044393466 515.988873833348,318.3322215454165 295.6136764083052,509.901458010649 239.89744975834685,223.26632044393475" stroke="black" stroke-linecap="round" stroke-width="1" /><polyline clip-path="url(#border_clip)" fill="none" points="205.3081404438115,248.83556545207716 511.13991275797576,275.59237847559984 335.0519467982127,527.0720560723231 205.30814044381145,248.83556545207725" stroke="black" stroke-linecap="round" stroke-width="1" /><polyline clip-path="url(#border_clip)" fill="none" points="165.97893431769612,327.84366197286744 462.38149712937627,202.02823859931416 423.1395685529278,521.6280994278185 165.97893431769614,327.84366197286755" stroke="black" stroke-linecap="round" stroke-width="1" /><polyline clip-path="url(#border_clip)" fill="none" points="205.4794556177519,481.07708466805786 309.9271997164745,159.6199821602955 536.0933446657738,410.8029331716465 205.479455617752,481.07708466805786" stroke="black" stroke-linecap="round" stroke-width="1" /><polyline clip-path="url(#border_clip)" fill="none" points="354.0770338018789,555.4281292612434 171.23851720880265,251.133737512001 526.1844489893185,244.9381332267555 354.077033801879,555.4281292612434" stroke="black" stroke-linecap="round" stroke-width="1" /><polyline clip-path="url(#border_clip)" fill="none" points="497.3694724148279,507.99822667548574 140.66779844061543,398.94358081391584 413.46272914455665,144.55819251059825 497.36947241482795,507.9982266754856" stroke="black" stroke-linecap="round" stroke-width="1" /><polyline clip-path="url(#border_clip)" fill="none" points="523.8721784548186,495.97653099783145 137.82753927403422,427.9064453524063 389.80028227114695,127.61702364976213 523.8721784548187,495.97653099783133" stroke="black" stroke-linecap="round" stroke-width="1" /><polyline clip-path="url(#border_clip)" fill="none" points="587.6464093951012,342.2186649017112 239.0986418748192,560.0154825015667 224.7549487300795,149.26585259672208 587.646409395101,342.218664901711" stroke="black" stroke-linecap="round" stroke-width="1" /><polyline clip-path="url(#border_clip)" fill="none" points="549.6919283387997,200.39811565250272 380.89608083144657,598.0562123439586 120.91199082975368,253.0456720035387 549.6919283387995,200.3981156525026" stroke="black" stroke-linecap="round" stroke-width="1" /><polyline clip-path="url(#border_clip)" fill="none" points="368.78435917781803,89.02148168006482 567.8048598200696,497.07397869987716 114.9107810021124,465.40453962005813 368.7843591778178,89.02148168006488" stroke="black" stroke-linecap="round" stroke-width="1" /><polyline clip-path="url(#border_clip)" fill="none" points="133.93988693767625,181.3046963897475 605.3074876586616,247.5510924467237 312.2526254036623,622.644211163529 133.93988693767614,181.30469638974773" stroke="black" stroke-linecap="round" stroke-width="1" /><polyline clip-path="url(#border_clip)" fill="none" points="103.05711409954296,201.82131440389583 602.9809616777343,210.54751762252204 345.4619242227229,639.1311679735823 103.05711409954293,201.82131440389605" stroke="black" stroke-linecap="round" stroke-width="1" /><polyline clip-path="url(#border_clip)" fill="none" points="75.79005147251814,478.59935276974085 376.9176805568009,48.544529518014656 598.7922679706812,524.3561177122444 75.7900514725182,478.599352769741" stroke="black" stroke-linecap="round" stroke-width="1" /><polyline clip-path="url(#border_clip)" fill="none" points="103.27432804421503,550.6994017457146 300.7350682436571,36.29658674575484 647.4906037121282,464.5040115085306 103.27432804421517,550.6994017457147" stroke="black" stroke-linecap="round" stroke-width="1" /><polyline clip-path="url(#border_clip)" fill="none" points="379.6349276998076,683.5137474458447 47.534171052539534,209.22471380253387 624.330901247653,158.76153875162123 379.6349276998078,683.5137474458447" stroke="black" stroke-linecap="round" stroke-width="1" /><polyline clip-path="url(#border_clip)" fill="none" points="423.48302536208325,693.8581385992305 16.651616695886446,242.0260847089927 611.3653579420303,115.61577669177643 423.4830253620835,693.8581385992304" stroke="black" stroke-linecap="round" stroke-width="1" /><polyline clip-path="url(#border_clip)" fill="none" points="706.2982678564806,445.83585854052336 90.03759068406674,610.9624093159508 255.16414145945237,-5.29826785647424 706.2982678564806,445.83585854052313" stroke="black" stroke-linecap="round" stroke-width="1" /><polyline clip-path="url(#border_clip)" fill="none" points="609.3362329218713,63.033240425705856 470.0354000739965,718.3921329173538 -27.871632995868026,270.0746266569406 609.3362329218711,63.0332404257058" stroke="black" stroke-linecap="round" stroke-width="1" /><polyline clip-path="url(#border_clip)" fill="none" points="541.3188713385065,-8.378101413876152 565.8881170170915,695.1930408075592 -55.706988355598355,364.6850606063174 541.3188713385061,-8.378101413876209" stroke="black" stroke-linecap="round" stroke-width="1" /><polyline clip-path="url(#border_clip)" fill="none" points="247.28115672650756,-63.488168582885635 760.63369249572,468.10394386735385 43.58515077777247,646.8842247155319 247.28115672650728,-63.48816858288541" stroke="black" stroke-linecap="round" stroke-width="1" /><polyline clip-path="url(#border_clip)" fill="none" points="-86.0409876945962,249.71657181879843 656.0515029327033,22.836128953930483 481.4894847618933,778.9472992272712 -86.04098769459608,249.71657181879868" stroke="black" stroke-linecap="round" stroke-width="1" /><polyline clip-path="url(#border_clip)" fill="none" points="-104.00719169753279,472.2848349695091 472.28483496947626,-104.00719169754177 683.2223567280571,683.2223567280325 -104.00719169753268,472.2848349695094" stroke="black" stroke-linecap="round" stroke-width="1" /><polyline clip-path="url(#border_clip)" fill="none" points="32.82675884147426,729.0882264217485 181.46959892433387,-113.907210156698 837.2036422341923,436.3189837349492 32.8267588414746,729.0882264217487" stroke="black" stroke-linecap="round" stroke-width="1" /><polyline clip-path="url(#border_clip)" fill="none" points="67.81170336410315,785.8018036700772 114.86172802647548,-111.96614807427659 868.8265686094218,377.6643444041989 67.81170336410344,785.8018036700773" stroke="black" stroke-linecap="round" stroke-width="1" /><polyline clip-path="url(#border_clip)" fill="none" points="111.57954757418622,840.3595214405566 45.729436359697104,-101.34094200470446 894.1910160661168,312.48142056414764 111.57954757418668,840.3595214405566" stroke="black" stroke-linecap="round" stroke-width="1" /><polyline clip-path="url(#border_clip)" fill="none" points="636.5770583834753,845.9999999999832 -221.65411676691258,350.50000000002194 636.577058383437,-145.00000000000557 636.5770583834756,845.9999999999828" stroke="black" stroke-linecap="round" stroke-width="1" /></svg>