<?xml version="1.0" encoding="UTF-8" standalone="no"?>
<!DOCTYPE svg PUBLIC "-//W3C//DTD SVG 1.1//EN"
 "http://www.w3.org/Graphics/SVG/1.1/DTD/svg11.dtd">
<svg width="197pt" height="292pt"
 viewBox="0.00 0.00 197.00 292.30" xmlns="http://www.w3.org/2000/svg" xmlns:xlink="http://www.w3.org/1999/xlink">
<g id="graph0" class="graph" transform="scale(1 1) rotate(0) translate(4 288.3)">
<polygon fill="white" stroke="transparent" points="-4,4 -4,-288.3 193,-288.3 193,4 -4,4"/>
<text text-anchor="middle" x="94.5" y="-7.8" font-family="Times,serif" font-size="14.00"> Fig. 14. Zeno&#39;s Paradox</text>
<g id="node1" class="node">
<ellipse fill="none" stroke="black" cx="125.24" cy="-236.22" rx="48.17" ry="48.17"/>
<text text-anchor="middle" x="125.24" y="-255.02" font-family="Times,serif" font-size="14.00">a</text>
<text text-anchor="middle" x="125.24" y="-240.02" font-family="Times,serif" font-size="14.00">step</text>
<text text-anchor="middle" x="125.24" y="-225.02" font-family="Times,serif" font-size="14.00">closer</text>
<text text-anchor="middle" x="125.24" y="-210.02" font-family="Times,serif" font-size="14.00"> </text>
</g>
<g id="node2" class="node">
<ellipse fill="none" stroke="black" cx="72.24" cy="-95.57" rx="56.64" ry="56.64"/>
<text text-anchor="middle" x="72.24" y="-114.37" font-family="Times,serif" font-size="14.00">a step</text>
<text text-anchor="middle" x="72.24" y="-99.37" font-family="Times,serif" font-size="14.00">infinitely</text>
<text text-anchor="middle" x="72.24" y="-84.37" font-family="Times,serif" font-size="14.00">further</text>
<text text-anchor="middle" x="72.24" y="-69.37" font-family="Times,serif" font-size="14.00">away</text>
</g>
<g id="edge1" class="edge">
<path fill="none" stroke="black" d="M75.24,-236.22C42.07,-236.22 43.49,-196.36 52.01,-159.22"/>
<polygon fill="black" stroke="black" points="55.44,-159.91 54.44,-149.36 48.65,-158.23 55.44,-159.91"/>
</g>
<g id="edge2" class="edge">
<path fill="none" stroke="black" d="M130.24,-95.57C166.14,-95.57 158.87,-142.22 146.34,-181.6"/>
<polygon fill="black" stroke="black" points="142.91,-180.82 143.07,-191.42 149.55,-183.04 142.91,-180.82"/>
</g>
</g>
</svg>
