<?xml version="1.0" encoding="UTF-8" standalone="no"?>
<svg
   width="364pt"
   height="208pt"
   viewBox="0.00 0.00 364.18 208.13"
   version="1.1"
   id="svg8"
   sodipodi:docname="next_step.svg"
   inkscape:version="1.3 (1:1.3+202307231459+0e150ed6c4)"
   xmlns:inkscape="http://www.inkscape.org/namespaces/inkscape"
   xmlns:sodipodi="http://sodipodi.sourceforge.net/DTD/sodipodi-0.dtd"
   xmlns="http://www.w3.org/2000/svg"
   xmlns:svg="http://www.w3.org/2000/svg">
  <sodipodi:namedview
     id="namedview8"
     pagecolor="#ffffff"
     bordercolor="#000000"
     borderopacity="0.25"
     inkscape:showpageshadow="2"
     inkscape:pageopacity="0.0"
     inkscape:pagecheckerboard="0"
     inkscape:deskcolor="#d1d1d1"
     inkscape:document-units="pt"
     inkscape:zoom="3.8303571"
     inkscape:cx="67.748252"
     inkscape:cy="130.14452"
     inkscape:window-width="2490"
     inkscape:window-height="1369"
     inkscape:window-x="1990"
     inkscape:window-y="34"
     inkscape:window-maximized="1"
     inkscape:current-layer="node5" />
  <defs
     id="defs8" />
  <g
     id="graph0"
     class="graph"
     transform="translate(-23.64326,204.13)">
    <g
       id="node1"
       class="node" />
    <g
       id="node2"
       class="node" />
    <g
       id="node3"
       class="node">
      <ellipse
         fill="none"
         stroke="#000000"
         cx="138"
         cy="-155.61"
         rx="65.519997"
         ry="26.74"
         id="ellipse2" />
      <g
         inkscape:label="Hershey Text"
         style="fill:none;stroke:#000000;stroke-linecap:round;stroke-linejoin:round"
         id="g17"
         transform="translate(-46.340342,0.138541)">
        <g
           transform="translate(138,-159.41)"
           id="g16">
          <path
             d="M 252,662 V 126 L 284,31.5 346,0 h 64 M 158,441 h 220"
             style="stroke-width:0.1694in"
             transform="scale(0.016,-0.016)"
             id="path8" />
          <path
             d="M 220,662 V 0 m 0,315 95,95 63,31 h 94 l 64,-31 31,-95 V 0"
             style="stroke-width:0.1694in"
             transform="matrix(0.016,0,0,-0.016,6.048,0)"
             id="path9" />
          <path
             d="m 189,252 h 378 v 63 l -31,63 -32,32 -63,31 H 346 L 284,410 220,346 189,252 V 189 L 220,94.5 284,31.5 346,0 h 95 l 63,31.5 63,63"
             style="stroke-width:0.1694in"
             transform="matrix(0.016,0,0,-0.016,15.616,0)"
             id="path10" />
          <path
             d="m 220,441 v -661 m 0,566 64,64 62,31 h 95 l 63,-31 63,-64 31,-94 V 189 L 567,94.5 504,31.5 441,0 h -95 l -62,31.5 -64,63"
             style="stroke-width:0.1694in"
             transform="matrix(0.016,0,0,-0.016,30.736,0)"
             id="path11" />
          <path
             d="M 567,441 V 0 m 0,346 -63,64 -63,31 H 346 L 284,410 220,346 189,252 V 189 L 220,94.5 284,31.5 346,0 h 95 l 63,31.5 63,63"
             style="stroke-width:0.1694in"
             transform="matrix(0.016,0,0,-0.016,40.304,0)"
             id="path12" />
          <path
             d="M 252,662 V 126 L 284,31.5 346,0 h 64 M 158,441 h 220"
             style="stroke-width:0.1694in"
             transform="matrix(0.016,0,0,-0.016,49.872,0)"
             id="path13" />
          <path
             d="M 220,662 V 0 m 0,315 95,95 63,31 h 94 l 64,-31 31,-95 V 0"
             style="stroke-width:0.1694in"
             transform="matrix(0.016,0,0,-0.016,55.92,0)"
             id="path14" />
          <path
             d="m 189,662 31,-32 32,32 -32,31 -31,-31 M 220,441 V 0"
             style="stroke-width:0.1694in"
             transform="matrix(0.016,0,0,-0.016,71.536,0)"
             id="path15" />
          <path
             d="m 536,346 -32,64 -94,31 h -95 l -95,-31 -31,-64 31,-62 64,-32 157,-32 63,-31 32,-63 V 94.5 L 504,31.5 410,0 h -95 l -95,31.5 -31,63"
             style="stroke-width:0.1694in"
             transform="matrix(0.016,0,0,-0.016,75.568,0)"
             id="path16" />
        </g>
      </g>
      <g
         inkscape:label="Hershey Text"
         style="fill:none;stroke:#000000;stroke-linecap:round;stroke-linejoin:round"
         id="g26"
         transform="translate(-46.340342,0.138541)">
        <g
           transform="translate(138,-144.41)"
           id="g25">
          <path
             d="M 220,441 V 126 L 252,31.5 315,0 h 95 l 62,31.5 95,94.5 m 0,315 V 0"
             style="stroke-width:0.1694in"
             transform="matrix(0.016,0,0,-0.016,6.048,0)"
             id="path17" />
          <path
             d="M 220,441 V 0 m 0,315 95,95 63,31 h 94 l 64,-31 31,-95 V 0"
             style="stroke-width:0.1694in"
             transform="matrix(0.016,0,0,-0.016,15.616,0)"
             id="path18" />
          <path
             d="m 567,346 -63,64 -63,31 H 346 L 284,410 220,346 189,252 V 189 L 220,94.5 284,31.5 346,0 h 95 l 63,31.5 63,63"
             style="stroke-width:0.1694in"
             transform="matrix(0.016,0,0,-0.016,25.184,0)"
             id="path19" />
          <path
             d="m 189,252 h 378 v 63 l -31,63 -32,32 -63,31 H 346 L 284,410 220,346 189,252 V 189 L 220,94.5 284,31.5 346,0 h 95 l 63,31.5 63,63"
             style="stroke-width:0.1694in"
             transform="matrix(0.016,0,0,-0.016,34.256,0)"
             id="path20" />
          <path
             d="M 220,441 V 0 m 0,252 32,94 63,64 63,31 h 94"
             style="stroke-width:0.1694in"
             transform="matrix(0.016,0,0,-0.016,43.328,0)"
             id="path21" />
          <path
             d="M 252,662 V 126 L 284,31.5 346,0 h 64 M 158,441 h 220"
             style="stroke-width:0.1694in"
             transform="matrix(0.016,0,0,-0.016,49.888,0)"
             id="path22" />
          <path
             d="M 567,441 V 0 m 0,346 -63,64 -63,31 H 346 L 284,410 220,346 189,252 V 189 L 220,94.5 284,31.5 346,0 h 95 l 63,31.5 63,63"
             style="stroke-width:0.1694in"
             transform="matrix(0.016,0,0,-0.016,55.936,0)"
             id="path23" />
          <path
             d="m 189,662 31,-32 32,32 -32,31 -31,-31 M 220,441 V 0"
             style="stroke-width:0.1694in"
             transform="matrix(0.016,0,0,-0.016,65.504,0)"
             id="path24" />
          <path
             d="M 220,441 V 0 m 0,315 95,95 63,31 h 94 l 64,-31 31,-95 V 0"
             style="stroke-width:0.1694in"
             transform="matrix(0.016,0,0,-0.016,69.536,0)"
             id="path25" />
        </g>
      </g>
    </g>
    <g
       id="edge5"
       class="edge">
      <path
         fill="none"
         stroke="transparent"
         d="m 54.32,-155.61 c 2.48,0 4.96,0 7.44,0"
         id="path3" />
    </g>
    <g
       id="node4"
       class="node"
       transform="translate(6.6617388,0.76841043)">
      <ellipse
         fill="none"
         stroke="#000000"
         cx="289"
         cy="-155.61"
         rx="67.349998"
         ry="26.74"
         id="ellipse3" />
      <g
         inkscape:label="Hershey Text"
         style="fill:none;stroke:#000000;stroke-linecap:round;stroke-linejoin:round"
         id="g35"
         transform="translate(-46.375823,0.79716886)">
        <g
           transform="translate(289,-159.41)"
           id="g34">
          <path
             d="M 252,662 V 126 L 284,31.5 346,0 h 64 M 158,441 h 220"
             style="stroke-width:0.1694in"
             transform="scale(0.016,-0.016)"
             id="path26" />
          <path
             d="M 567,441 V 0 m 0,346 -63,64 -63,31 H 346 L 284,410 220,346 189,252 V 189 L 220,94.5 284,31.5 346,0 h 95 l 63,31.5 63,63"
             style="stroke-width:0.1694in"
             transform="matrix(0.016,0,0,-0.016,6.048,0)"
             id="path27" />
          <path
             d="M 220,662 V 0 M 536,441 220,126 M 346,252 567,0"
             style="stroke-width:0.1694in"
             transform="matrix(0.016,0,0,-0.016,15.616,0)"
             id="path28" />
          <path
             d="m 189,252 h 378 v 63 l -31,63 -32,32 -63,31 H 346 L 284,410 220,346 189,252 V 189 L 220,94.5 284,31.5 346,0 h 95 l 63,31.5 63,63"
             style="stroke-width:0.1694in"
             transform="matrix(0.016,0,0,-0.016,24.192,0)"
             id="path29" />
          <path
             d="M 567,441 V 0 m 0,346 -63,64 -63,31 H 346 L 284,410 220,346 189,252 V 189 L 220,94.5 284,31.5 346,0 h 95 l 63,31.5 63,63"
             style="stroke-width:0.1694in"
             transform="matrix(0.016,0,0,-0.016,39.312,0)"
             id="path30" />
          <path
             d="m 536,346 -32,64 -94,31 h -95 l -95,-31 -31,-64 31,-62 64,-32 157,-32 63,-31 32,-63 V 94.5 L 504,31.5 410,0 h -95 l -95,31.5 -31,63"
             style="stroke-width:0.1694in"
             transform="matrix(0.016,0,0,-0.016,54.928,0)"
             id="path31" />
          <path
             d="M 252,662 V 126 L 284,31.5 346,0 h 64 M 158,441 h 220"
             style="stroke-width:0.1694in"
             transform="matrix(0.016,0,0,-0.016,63.504,0)"
             id="path32" />
          <path
             d="m 189,252 h 378 v 63 l -31,63 -32,32 -63,31 H 346 L 284,410 220,346 189,252 V 189 L 220,94.5 284,31.5 346,0 h 95 l 63,31.5 63,63"
             style="stroke-width:0.1694in"
             transform="matrix(0.016,0,0,-0.016,69.552,0)"
             id="path33" />
          <path
             d="m 220,441 v -661 m 0,566 64,64 62,31 h 95 l 63,-31 63,-64 31,-94 V 189 L 567,94.5 504,31.5 441,0 h -95 l -62,31.5 -64,63"
             style="stroke-width:0.1694in"
             transform="matrix(0.016,0,0,-0.016,78.624,0)"
             id="path34" />
        </g>
      </g>
      <g
         inkscape:label="Hershey Text"
         style="fill:none;stroke:#000000;stroke-linecap:round;stroke-linejoin:round"
         id="g42"
         transform="translate(-39.378725,0.66885946)">
        <g
           transform="translate(289,-144.41)"
           id="g41">
          <path
             d="M 410,662 H 346 L 284,630 252,536 V 0 m -94,441 h 220"
             style="stroke-width:0.1694in"
             transform="matrix(0.016,0,0,-0.016,6.048,0)"
             id="path35" />
          <path
             d="M 346,441 284,410 220,346 189,252 V 189 L 220,94.5 284,31.5 346,0 h 95 l 63,31.5 63,63 31,94.5 v 63 l -31,94 -63,64 -63,31 h -95"
             style="stroke-width:0.1694in"
             transform="matrix(0.016,0,0,-0.016,12.096,0)"
             id="path36" />
          <path
             d="M 220,441 V 0 m 0,252 32,94 63,64 63,31 h 94"
             style="stroke-width:0.1694in"
             transform="matrix(0.016,0,0,-0.016,21.664,0)"
             id="path37" />
          <path
             d="M 189,441 315,0 M 441,441 315,0 M 441,441 567,0 M 693,441 567,0"
             style="stroke-width:0.1694in"
             transform="matrix(0.016,0,0,-0.016,28.224,0)"
             id="path38" />
          <path
             d="M 567,441 V 0 m 0,346 -63,64 -63,31 H 346 L 284,410 220,346 189,252 V 189 L 220,94.5 284,31.5 346,0 h 95 l 63,31.5 63,63"
             style="stroke-width:0.1694in"
             transform="matrix(0.016,0,0,-0.016,39.312,0)"
             id="path39" />
          <path
             d="M 220,441 V 0 m 0,252 32,94 63,64 63,31 h 94"
             style="stroke-width:0.1694in"
             transform="matrix(0.016,0,0,-0.016,48.88,0)"
             id="path40" />
          <path
             d="M 567,662 V 0 m 0,346 -63,64 -63,31 H 346 L 284,410 220,346 189,252 V 189 L 220,94.5 284,31.5 346,0 h 95 l 63,31.5 63,63"
             style="stroke-width:0.1694in"
             transform="matrix(0.016,0,0,-0.016,55.44,0)"
             id="path41" />
        </g>
      </g>
    </g>
    <g
       id="edge2"
       class="edge">
      <path
         fill="none"
         stroke="#000000"
         d="m 201.76,-148.94 c 4,0.06 8.05,0.08 12.09,0.08"
         id="path5" />
      <polygon
         fill="#000000"
         stroke="#000000"
         points="223.88,-148.92 213.9,-145.36 213.86,-152.36 "
         id="polygon5" />
    </g>
    <g
       id="node5"
       class="node">
      <ellipse
         fill="none"
         stroke="#000000"
         cx="138"
         cy="-65.870003"
         rx="58.880001"
         ry="26.74"
         id="ellipse6" />
      <g
         inkscape:label="Hershey Text"
         style="fill:none;stroke:#000000;stroke-linecap:round;stroke-linejoin:round"
         id="g50"
         transform="translate(-37.921979,0.54158374)">
        <g
           transform="translate(138,-69.67)"
           id="g49">
          <path
             d="m 536,346 -32,64 -94,31 h -95 l -95,-31 -31,-64 31,-62 64,-32 157,-32 63,-31 32,-63 V 94.5 L 504,31.5 410,0 h -95 l -95,31.5 -31,63"
             style="stroke-width:0.1694in"
             transform="scale(0.016,-0.016)"
             id="path42" />
          <path
             d="M 252,662 V 126 L 284,31.5 346,0 h 64 M 158,441 h 220"
             style="stroke-width:0.1694in"
             transform="matrix(0.016,0,0,-0.016,8.576,0)"
             id="path43" />
          <path
             d="M 567,441 V 0 m 0,346 -63,64 -63,31 H 346 L 284,410 220,346 189,252 V 189 L 220,94.5 284,31.5 346,0 h 95 l 63,31.5 63,63"
             style="stroke-width:0.1694in"
             transform="matrix(0.016,0,0,-0.016,14.624,0)"
             id="path44" />
          <path
             d="M 158,441 346,0 M 536,441 346,0 l -62,-126 -64,-63 -62,-31 h -32"
             style="stroke-width:0.1694in"
             transform="matrix(0.016,0,0,-0.016,24.192,0)"
             id="path45" />
          <path
             d="M 220,662 V 0 m 0,315 95,95 63,31 h 94 l 64,-31 31,-95 V 0"
             style="stroke-width:0.1694in"
             transform="matrix(0.016,0,0,-0.016,38.304,0)"
             id="path46" />
          <path
             d="m 189,252 h 378 v 63 l -31,63 -32,32 -63,31 H 346 L 284,410 220,346 189,252 V 189 L 220,94.5 284,31.5 346,0 h 95 l 63,31.5 63,63"
             style="stroke-width:0.1694in"
             transform="matrix(0.016,0,0,-0.016,47.872,0)"
             id="path47" />
          <path
             d="M 220,441 V 0 m 0,252 32,94 63,64 63,31 h 94"
             style="stroke-width:0.1694in"
             transform="matrix(0.016,0,0,-0.016,56.944,0)"
             id="path48" />
          <path
             d="m 189,252 h 378 v 63 l -31,63 -32,32 -63,31 H 346 L 284,410 220,346 189,252 V 189 L 220,94.5 284,31.5 346,0 h 95 l 63,31.5 63,63"
             style="stroke-width:0.1694in"
             transform="matrix(0.016,0,0,-0.016,63.504,0)"
             id="path49" />
        </g>
      </g>
      <g
         inkscape:label="Hershey Text"
         style="fill:none;stroke:#000000;stroke-linecap:round;stroke-linejoin:round"
         id="g57"
         transform="translate(-34.888609,1.7038592)">
        <g
           transform="translate(138,-54.67)"
           id="g56">
          <path
             d="M 410,662 H 346 L 284,630 252,536 V 0 m -94,441 h 220"
             style="stroke-width:0.1694in"
             transform="matrix(0.016,0,0,-0.016,6.048,0)"
             id="path50" />
          <path
             d="M 346,441 284,410 220,346 189,252 V 189 L 220,94.5 284,31.5 346,0 h 95 l 63,31.5 63,63 31,94.5 v 63 l -31,94 -63,64 -63,31 h -95"
             style="stroke-width:0.1694in"
             transform="matrix(0.016,0,0,-0.016,12.096,0)"
             id="path51" />
          <path
             d="M 220,441 V 0 m 0,252 32,94 63,64 63,31 h 94"
             style="stroke-width:0.1694in"
             transform="matrix(0.016,0,0,-0.016,21.664,0)"
             id="path52" />
          <path
             d="m 189,252 h 378 v 63 l -31,63 -32,32 -63,31 H 346 L 284,410 220,346 189,252 V 189 L 220,94.5 284,31.5 346,0 h 95 l 63,31.5 63,63"
             style="stroke-width:0.1694in"
             transform="matrix(0.016,0,0,-0.016,28.224,0)"
             id="path53" />
          <path
             d="M 158,441 346,0 M 536,441 346,0"
             style="stroke-width:0.1694in"
             transform="matrix(0.016,0,0,-0.016,37.296,0)"
             id="path54" />
          <path
             d="m 189,252 h 378 v 63 l -31,63 -32,32 -63,31 H 346 L 284,410 220,346 189,252 V 189 L 220,94.5 284,31.5 346,0 h 95 l 63,31.5 63,63"
             style="stroke-width:0.1694in"
             transform="matrix(0.016,0,0,-0.016,45.36,0)"
             id="path55" />
          <path
             d="M 220,441 V 0 m 0,252 32,94 63,64 63,31 h 94"
             style="stroke-width:0.1694in"
             transform="matrix(0.016,0,0,-0.016,54.432,0)"
             id="path56" />
        </g>
      </g>
    </g>
    <g
       id="edge3"
       class="edge">
      <path
         fill="none"
         stroke="#000000"
         d="m 138,-128.29 c 0,7.97 0,16.86 0,25.35"
         id="path7" />
      <polygon
         fill="#000000"
         stroke="#000000"
         points="138,-92.87 134.5,-102.87 141.5,-102.87 "
         id="polygon7" />
    </g>
    <g
       id="edge4"
       class="edge">
      <path
         fill="none"
         stroke="#000000"
         d="m 313,-180.61 c 36.28,-36.28 -50.13,-14.13 -113.74,5.36"
         id="path57" />
      <polygon
         fill="#000000"
         stroke="#000000"
         points="189.67,-172.28 198.18,-178.58 200.25,-171.9 "
         id="polygon8" />
    </g>
    <g
       inkscape:label="Hershey Text"
       style="fill:none;stroke:#000000;stroke-linecap:round;stroke-linejoin:round"
       id="g85"
       transform="translate(-102.88326,0.17425793)">
      <g
         transform="translate(178.09,-7.8)"
         id="g84">
        <path
           d="M 220,662 V 0 m 0,662 H 630 M 220,346 h 252"
           style="stroke-width:0.1694in"
           transform="matrix(0.016,0,0,-0.016,6.048,0)"
           id="path58" />
        <path
           d="m 189,662 31,-32 32,32 -32,31 -31,-31 M 220,441 V 0"
           style="stroke-width:0.1694in"
           transform="matrix(0.016,0,0,-0.016,15.12,0)"
           id="path59" />
        <path
           d="M 567,441 V -63 l -31,-95 -32,-31 -63,-31 h -95 l -62,31 m 283,535 -63,64 -63,31 H 346 L 284,410 220,346 189,252 V 189 L 220,94.5 284,31.5 346,0 h 95 l 63,31.5 63,63"
           style="stroke-width:0.1694in"
           transform="matrix(0.016,0,0,-0.016,19.152,0)"
           id="path60" />
        <path
           d="m 220,158 -31,-32 31,-31.5 32,31.5 -32,32"
           style="stroke-width:0.1694in"
           transform="matrix(0.016,0,0,-0.016,28.72,0)"
           id="path61" />
        <path
           d="m 284,536 62,31 95,95 V 0"
           style="stroke-width:0.1694in"
           transform="matrix(0.016,0,0,-0.016,38.8,0)"
           id="path62" />
        <path
           d="M 567,662 H 252 l -32,-284 32,32 94,31 h 95 l 95,-31 62,-64 32,-94 V 189 L 598,94.5 536,31.5 441,0 H 346 L 252,31.5 220,63 189,126"
           style="stroke-width:0.1694in"
           transform="matrix(0.016,0,0,-0.016,48.88,0)"
           id="path63" />
        <path
           d="m 220,158 -31,-32 31,-31.5 32,31.5 -32,32"
           style="stroke-width:0.1694in"
           transform="matrix(0.016,0,0,-0.016,58.96,0)"
           id="path64" />
        <path
           d="M 346,662 V 0 M 126,662 h 441"
           style="stroke-width:0.1694in"
           transform="matrix(0.016,0,0,-0.016,69.04,0)"
           id="path65" />
        <path
           d="M 220,662 V 0 m 0,315 95,95 63,31 h 94 l 64,-31 31,-95 V 0"
           style="stroke-width:0.1694in"
           transform="matrix(0.016,0,0,-0.016,77.104,0)"
           id="path66" />
        <path
           d="m 189,252 h 378 v 63 l -31,63 -32,32 -63,31 H 346 L 284,410 220,346 189,252 V 189 L 220,94.5 284,31.5 346,0 h 95 l 63,31.5 63,63"
           style="stroke-width:0.1694in"
           transform="matrix(0.016,0,0,-0.016,86.672,0)"
           id="path67" />
        <path
           d="M 220,662 V 0 M 220,662 472,0 M 724,662 472,0 M 724,662 V 0"
           style="stroke-width:0.1694in"
           transform="matrix(0.016,0,0,-0.016,101.792,0)"
           id="path68" />
        <path
           d="M 346,441 284,410 220,346 189,252 V 189 L 220,94.5 284,31.5 346,0 h 95 l 63,31.5 63,63 31,94.5 v 63 l -31,94 -63,64 -63,31 h -95"
           style="stroke-width:0.1694in"
           transform="matrix(0.016,0,0,-0.016,113.888,0)"
           id="path69" />
        <path
           d="m 536,346 -32,64 -94,31 h -95 l -95,-31 -31,-64 31,-62 64,-32 157,-32 63,-31 32,-63 V 94.5 L 504,31.5 410,0 h -95 l -95,31.5 -31,63"
           style="stroke-width:0.1694in"
           transform="matrix(0.016,0,0,-0.016,123.456,0)"
           id="path70" />
        <path
           d="M 252,662 V 126 L 284,31.5 346,0 h 64 M 158,441 h 220"
           style="stroke-width:0.1694in"
           transform="matrix(0.016,0,0,-0.016,132.032,0)"
           id="path71" />
        <path
           d="M 220,662 V 0"
           style="stroke-width:0.1694in"
           transform="matrix(0.016,0,0,-0.016,144.128,0)"
           id="path72" />
        <path
           d="M 220,441 V 0 m 0,315 95,95 63,31 h 94 l 64,-31 31,-95 V 0 m 0,315 95,95 62,31 h 95 l 63,-31 32,-95 V 0"
           style="stroke-width:0.1694in"
           transform="matrix(0.016,0,0,-0.016,148.16,0)"
           id="path73" />
        <path
           d="m 220,441 v -661 m 0,566 64,64 62,31 h 95 l 63,-31 63,-64 31,-94 V 189 L 567,94.5 504,31.5 441,0 h -95 l -62,31.5 -64,63"
           style="stroke-width:0.1694in"
           transform="matrix(0.016,0,0,-0.016,163.28,0)"
           id="path74" />
        <path
           d="M 346,441 284,410 220,346 189,252 V 189 L 220,94.5 284,31.5 346,0 h 95 l 63,31.5 63,63 31,94.5 v 63 l -31,94 -63,64 -63,31 h -95"
           style="stroke-width:0.1694in"
           transform="matrix(0.016,0,0,-0.016,172.848,0)"
           id="path75" />
        <path
           d="M 220,441 V 0 m 0,252 32,94 63,64 63,31 h 94"
           style="stroke-width:0.1694in"
           transform="matrix(0.016,0,0,-0.016,182.416,0)"
           id="path76" />
        <path
           d="M 252,662 V 126 L 284,31.5 346,0 h 64 M 158,441 h 220"
           style="stroke-width:0.1694in"
           transform="matrix(0.016,0,0,-0.016,188.976,0)"
           id="path77" />
        <path
           d="M 567,441 V 0 m 0,346 -63,64 -63,31 H 346 L 284,410 220,346 189,252 V 189 L 220,94.5 284,31.5 346,0 h 95 l 63,31.5 63,63"
           style="stroke-width:0.1694in"
           transform="matrix(0.016,0,0,-0.016,195.024,0)"
           id="path78" />
        <path
           d="M 220,441 V 0 m 0,315 95,95 63,31 h 94 l 64,-31 31,-95 V 0"
           style="stroke-width:0.1694in"
           transform="matrix(0.016,0,0,-0.016,204.592,0)"
           id="path79" />
        <path
           d="M 252,662 V 126 L 284,31.5 346,0 h 64 M 158,441 h 220"
           style="stroke-width:0.1694in"
           transform="matrix(0.016,0,0,-0.016,214.16,0)"
           id="path80" />
        <path
           d="m 630,567 -63,63 -95,32 H 346 l -94,-32 -63,-63 v -63 l 31,-63 32,-31 63,-32 189,-63 63,-31 31,-32 32,-63 V 94.5 L 567,31.5 472,0 H 346 l -94,31.5 -63,63"
           style="stroke-width:0.1694in"
           transform="matrix(0.016,0,0,-0.016,226.256,0)"
           id="path81" />
        <path
           d="M 252,662 V 126 L 284,31.5 346,0 h 64 M 158,441 h 220"
           style="stroke-width:0.1694in"
           transform="matrix(0.016,0,0,-0.016,236.336,0)"
           id="path82" />
        <path
           d="m 189,252 h 378 v 63 l -31,63 -32,32 -63,31 H 346 L 284,410 220,346 189,252 V 189 L 220,94.5 284,31.5 346,0 h 95 l 63,31.5 63,63"
           style="stroke-width:0.1694in"
           transform="matrix(0.016,0,0,-0.016,242.384,0)"
           id="path83" />
        <path
           d="m 220,441 v -661 m 0,566 64,64 62,31 h 95 l 63,-31 63,-64 31,-94 V 189 L 567,94.5 504,31.5 441,0 h -95 l -62,31.5 -64,63"
           style="stroke-width:0.1694in"
           transform="matrix(0.016,0,0,-0.016,251.456,0)"
           id="path84" />
      </g>
    </g>
  </g>
</svg>
